G04 #@! TF.GenerationSoftware,KiCad,Pcbnew,(5.1.2)-1*
G04 #@! TF.CreationDate,2019-05-30T07:31:40-07:00*
G04 #@! TF.ProjectId,mechanical_keyboard_mk0,6d656368-616e-4696-9361-6c5f6b657962,rev?*
G04 #@! TF.SameCoordinates,Original*
G04 #@! TF.FileFunction,Legend,Top*
G04 #@! TF.FilePolarity,Positive*
%FSLAX46Y46*%
G04 Gerber Fmt 4.6, Leading zero omitted, Abs format (unit mm)*
G04 Created by KiCad (PCBNEW (5.1.2)-1) date 2019-05-30 07:31:40*
%MOMM*%
%LPD*%
G04 APERTURE LIST*
%ADD10C,0.120000*%
%ADD11C,0.150000*%
G04 APERTURE END LIST*
D10*
X103505000Y-60833000D02*
X103505000Y-46863000D01*
X117475000Y-60833000D02*
X103505000Y-60833000D01*
X117475000Y-46863000D02*
X117475000Y-60833000D01*
X103505000Y-46863000D02*
X117475000Y-46863000D01*
X160655000Y-79883000D02*
X160655000Y-65913000D01*
X174625000Y-79883000D02*
X160655000Y-79883000D01*
X174625000Y-65913000D02*
X174625000Y-79883000D01*
X160655000Y-65913000D02*
X174625000Y-65913000D01*
X160655000Y-60833000D02*
X160655000Y-46863000D01*
X174625000Y-60833000D02*
X160655000Y-60833000D01*
X174625000Y-46863000D02*
X174625000Y-60833000D01*
X160655000Y-46863000D02*
X174625000Y-46863000D01*
X141605000Y-79883000D02*
X141605000Y-65913000D01*
X155575000Y-79883000D02*
X141605000Y-79883000D01*
X155575000Y-65913000D02*
X155575000Y-79883000D01*
X141605000Y-65913000D02*
X155575000Y-65913000D01*
X141605000Y-60833000D02*
X141605000Y-46863000D01*
X155575000Y-60833000D02*
X141605000Y-60833000D01*
X155575000Y-46863000D02*
X155575000Y-60833000D01*
X141605000Y-46863000D02*
X155575000Y-46863000D01*
X94936000Y-47438000D02*
X96266000Y-47438000D01*
X94936000Y-48768000D02*
X94936000Y-47438000D01*
X94936000Y-50038000D02*
X97596000Y-50038000D01*
X97596000Y-50038000D02*
X97596000Y-52638000D01*
X94936000Y-50038000D02*
X94936000Y-52638000D01*
X94936000Y-52638000D02*
X97596000Y-52638000D01*
X99635000Y-86928000D02*
X99635000Y-85598000D01*
X100965000Y-86928000D02*
X99635000Y-86928000D01*
X102235000Y-86928000D02*
X102235000Y-84268000D01*
X102235000Y-84268000D02*
X109915000Y-84268000D01*
X102235000Y-86928000D02*
X109915000Y-86928000D01*
X109915000Y-86928000D02*
X109915000Y-84268000D01*
X156995000Y-75688000D02*
X159235000Y-75688000D01*
X156995000Y-75448000D02*
X159235000Y-75448000D01*
X156995000Y-75568000D02*
X159235000Y-75568000D01*
X158115000Y-71398000D02*
X158115000Y-72048000D01*
X158115000Y-76938000D02*
X158115000Y-76288000D01*
X156995000Y-72048000D02*
X156995000Y-76288000D01*
X159235000Y-72048000D02*
X156995000Y-72048000D01*
X159235000Y-76288000D02*
X159235000Y-72048000D01*
X156995000Y-76288000D02*
X159235000Y-76288000D01*
X156995000Y-56638000D02*
X159235000Y-56638000D01*
X156995000Y-56398000D02*
X159235000Y-56398000D01*
X156995000Y-56518000D02*
X159235000Y-56518000D01*
X158115000Y-52348000D02*
X158115000Y-52998000D01*
X158115000Y-57888000D02*
X158115000Y-57238000D01*
X156995000Y-52998000D02*
X156995000Y-57238000D01*
X159235000Y-52998000D02*
X156995000Y-52998000D01*
X159235000Y-57238000D02*
X159235000Y-52998000D01*
X156995000Y-57238000D02*
X159235000Y-57238000D01*
X137945000Y-75688000D02*
X140185000Y-75688000D01*
X137945000Y-75448000D02*
X140185000Y-75448000D01*
X137945000Y-75568000D02*
X140185000Y-75568000D01*
X139065000Y-71398000D02*
X139065000Y-72048000D01*
X139065000Y-76938000D02*
X139065000Y-76288000D01*
X137945000Y-72048000D02*
X137945000Y-76288000D01*
X140185000Y-72048000D02*
X137945000Y-72048000D01*
X140185000Y-76288000D02*
X140185000Y-72048000D01*
X137945000Y-76288000D02*
X140185000Y-76288000D01*
X137945000Y-56638000D02*
X140185000Y-56638000D01*
X137945000Y-56398000D02*
X140185000Y-56398000D01*
X137945000Y-56518000D02*
X140185000Y-56518000D01*
X139065000Y-52348000D02*
X139065000Y-52998000D01*
X139065000Y-57888000D02*
X139065000Y-57238000D01*
X137945000Y-52998000D02*
X137945000Y-57238000D01*
X140185000Y-52998000D02*
X137945000Y-52998000D01*
X140185000Y-57238000D02*
X140185000Y-52998000D01*
X137945000Y-57238000D02*
X140185000Y-57238000D01*
X122555000Y-79883000D02*
X122555000Y-65913000D01*
X136525000Y-79883000D02*
X122555000Y-79883000D01*
X136525000Y-65913000D02*
X136525000Y-79883000D01*
X122555000Y-65913000D02*
X136525000Y-65913000D01*
X122555000Y-60833000D02*
X122555000Y-46863000D01*
X136525000Y-60833000D02*
X122555000Y-60833000D01*
X136525000Y-46863000D02*
X136525000Y-60833000D01*
X122555000Y-46863000D02*
X136525000Y-46863000D01*
X103505000Y-79883000D02*
X103505000Y-65913000D01*
X117475000Y-79883000D02*
X103505000Y-79883000D01*
X117475000Y-65913000D02*
X117475000Y-79883000D01*
X103505000Y-65913000D02*
X117475000Y-65913000D01*
X118895000Y-75688000D02*
X121135000Y-75688000D01*
X118895000Y-75448000D02*
X121135000Y-75448000D01*
X118895000Y-75568000D02*
X121135000Y-75568000D01*
X120015000Y-71398000D02*
X120015000Y-72048000D01*
X120015000Y-76938000D02*
X120015000Y-76288000D01*
X118895000Y-72048000D02*
X118895000Y-76288000D01*
X121135000Y-72048000D02*
X118895000Y-72048000D01*
X121135000Y-76288000D02*
X121135000Y-72048000D01*
X118895000Y-76288000D02*
X121135000Y-76288000D01*
X118895000Y-56638000D02*
X121135000Y-56638000D01*
X118895000Y-56398000D02*
X121135000Y-56398000D01*
X118895000Y-56518000D02*
X121135000Y-56518000D01*
X120015000Y-52348000D02*
X120015000Y-52998000D01*
X120015000Y-57888000D02*
X120015000Y-57238000D01*
X118895000Y-52998000D02*
X118895000Y-57238000D01*
X121135000Y-52998000D02*
X118895000Y-52998000D01*
X121135000Y-57238000D02*
X121135000Y-52998000D01*
X118895000Y-57238000D02*
X121135000Y-57238000D01*
X99845000Y-75688000D02*
X102085000Y-75688000D01*
X99845000Y-75448000D02*
X102085000Y-75448000D01*
X99845000Y-75568000D02*
X102085000Y-75568000D01*
X100965000Y-71398000D02*
X100965000Y-72048000D01*
X100965000Y-76938000D02*
X100965000Y-76288000D01*
X99845000Y-72048000D02*
X99845000Y-76288000D01*
X102085000Y-72048000D02*
X99845000Y-72048000D01*
X102085000Y-76288000D02*
X102085000Y-72048000D01*
X99845000Y-76288000D02*
X102085000Y-76288000D01*
X99845000Y-56638000D02*
X102085000Y-56638000D01*
X99845000Y-56398000D02*
X102085000Y-56398000D01*
X99845000Y-56518000D02*
X102085000Y-56518000D01*
X100965000Y-52348000D02*
X100965000Y-52998000D01*
X100965000Y-57888000D02*
X100965000Y-57238000D01*
X99845000Y-52998000D02*
X99845000Y-57238000D01*
X102085000Y-52998000D02*
X99845000Y-52998000D01*
X102085000Y-57238000D02*
X102085000Y-52998000D01*
X99845000Y-57238000D02*
X102085000Y-57238000D01*
D11*
X109156666Y-46378761D02*
X109299523Y-46426380D01*
X109537619Y-46426380D01*
X109632857Y-46378761D01*
X109680476Y-46331142D01*
X109728095Y-46235904D01*
X109728095Y-46140666D01*
X109680476Y-46045428D01*
X109632857Y-45997809D01*
X109537619Y-45950190D01*
X109347142Y-45902571D01*
X109251904Y-45854952D01*
X109204285Y-45807333D01*
X109156666Y-45712095D01*
X109156666Y-45616857D01*
X109204285Y-45521619D01*
X109251904Y-45474000D01*
X109347142Y-45426380D01*
X109585238Y-45426380D01*
X109728095Y-45474000D01*
X110061428Y-45426380D02*
X110299523Y-46426380D01*
X110490000Y-45712095D01*
X110680476Y-46426380D01*
X110918571Y-45426380D01*
X111823333Y-46426380D02*
X111251904Y-46426380D01*
X111537619Y-46426380D02*
X111537619Y-45426380D01*
X111442380Y-45569238D01*
X111347142Y-45664476D01*
X111251904Y-45712095D01*
X166306666Y-65428761D02*
X166449523Y-65476380D01*
X166687619Y-65476380D01*
X166782857Y-65428761D01*
X166830476Y-65381142D01*
X166878095Y-65285904D01*
X166878095Y-65190666D01*
X166830476Y-65095428D01*
X166782857Y-65047809D01*
X166687619Y-65000190D01*
X166497142Y-64952571D01*
X166401904Y-64904952D01*
X166354285Y-64857333D01*
X166306666Y-64762095D01*
X166306666Y-64666857D01*
X166354285Y-64571619D01*
X166401904Y-64524000D01*
X166497142Y-64476380D01*
X166735238Y-64476380D01*
X166878095Y-64524000D01*
X167211428Y-64476380D02*
X167449523Y-65476380D01*
X167640000Y-64762095D01*
X167830476Y-65476380D01*
X168068571Y-64476380D01*
X168592380Y-64904952D02*
X168497142Y-64857333D01*
X168449523Y-64809714D01*
X168401904Y-64714476D01*
X168401904Y-64666857D01*
X168449523Y-64571619D01*
X168497142Y-64524000D01*
X168592380Y-64476380D01*
X168782857Y-64476380D01*
X168878095Y-64524000D01*
X168925714Y-64571619D01*
X168973333Y-64666857D01*
X168973333Y-64714476D01*
X168925714Y-64809714D01*
X168878095Y-64857333D01*
X168782857Y-64904952D01*
X168592380Y-64904952D01*
X168497142Y-64952571D01*
X168449523Y-65000190D01*
X168401904Y-65095428D01*
X168401904Y-65285904D01*
X168449523Y-65381142D01*
X168497142Y-65428761D01*
X168592380Y-65476380D01*
X168782857Y-65476380D01*
X168878095Y-65428761D01*
X168925714Y-65381142D01*
X168973333Y-65285904D01*
X168973333Y-65095428D01*
X168925714Y-65000190D01*
X168878095Y-64952571D01*
X168782857Y-64904952D01*
X166306666Y-46378761D02*
X166449523Y-46426380D01*
X166687619Y-46426380D01*
X166782857Y-46378761D01*
X166830476Y-46331142D01*
X166878095Y-46235904D01*
X166878095Y-46140666D01*
X166830476Y-46045428D01*
X166782857Y-45997809D01*
X166687619Y-45950190D01*
X166497142Y-45902571D01*
X166401904Y-45854952D01*
X166354285Y-45807333D01*
X166306666Y-45712095D01*
X166306666Y-45616857D01*
X166354285Y-45521619D01*
X166401904Y-45474000D01*
X166497142Y-45426380D01*
X166735238Y-45426380D01*
X166878095Y-45474000D01*
X167211428Y-45426380D02*
X167449523Y-46426380D01*
X167640000Y-45712095D01*
X167830476Y-46426380D01*
X168068571Y-45426380D01*
X168354285Y-45426380D02*
X169020952Y-45426380D01*
X168592380Y-46426380D01*
X147256666Y-65428761D02*
X147399523Y-65476380D01*
X147637619Y-65476380D01*
X147732857Y-65428761D01*
X147780476Y-65381142D01*
X147828095Y-65285904D01*
X147828095Y-65190666D01*
X147780476Y-65095428D01*
X147732857Y-65047809D01*
X147637619Y-65000190D01*
X147447142Y-64952571D01*
X147351904Y-64904952D01*
X147304285Y-64857333D01*
X147256666Y-64762095D01*
X147256666Y-64666857D01*
X147304285Y-64571619D01*
X147351904Y-64524000D01*
X147447142Y-64476380D01*
X147685238Y-64476380D01*
X147828095Y-64524000D01*
X148161428Y-64476380D02*
X148399523Y-65476380D01*
X148590000Y-64762095D01*
X148780476Y-65476380D01*
X149018571Y-64476380D01*
X149828095Y-64476380D02*
X149637619Y-64476380D01*
X149542380Y-64524000D01*
X149494761Y-64571619D01*
X149399523Y-64714476D01*
X149351904Y-64904952D01*
X149351904Y-65285904D01*
X149399523Y-65381142D01*
X149447142Y-65428761D01*
X149542380Y-65476380D01*
X149732857Y-65476380D01*
X149828095Y-65428761D01*
X149875714Y-65381142D01*
X149923333Y-65285904D01*
X149923333Y-65047809D01*
X149875714Y-64952571D01*
X149828095Y-64904952D01*
X149732857Y-64857333D01*
X149542380Y-64857333D01*
X149447142Y-64904952D01*
X149399523Y-64952571D01*
X149351904Y-65047809D01*
X147256666Y-46378761D02*
X147399523Y-46426380D01*
X147637619Y-46426380D01*
X147732857Y-46378761D01*
X147780476Y-46331142D01*
X147828095Y-46235904D01*
X147828095Y-46140666D01*
X147780476Y-46045428D01*
X147732857Y-45997809D01*
X147637619Y-45950190D01*
X147447142Y-45902571D01*
X147351904Y-45854952D01*
X147304285Y-45807333D01*
X147256666Y-45712095D01*
X147256666Y-45616857D01*
X147304285Y-45521619D01*
X147351904Y-45474000D01*
X147447142Y-45426380D01*
X147685238Y-45426380D01*
X147828095Y-45474000D01*
X148161428Y-45426380D02*
X148399523Y-46426380D01*
X148590000Y-45712095D01*
X148780476Y-46426380D01*
X149018571Y-45426380D01*
X149875714Y-45426380D02*
X149399523Y-45426380D01*
X149351904Y-45902571D01*
X149399523Y-45854952D01*
X149494761Y-45807333D01*
X149732857Y-45807333D01*
X149828095Y-45854952D01*
X149875714Y-45902571D01*
X149923333Y-45997809D01*
X149923333Y-46235904D01*
X149875714Y-46331142D01*
X149828095Y-46378761D01*
X149732857Y-46426380D01*
X149494761Y-46426380D01*
X149399523Y-46378761D01*
X149351904Y-46331142D01*
X95932666Y-45890380D02*
X95932666Y-46604666D01*
X95885047Y-46747523D01*
X95789809Y-46842761D01*
X95646952Y-46890380D01*
X95551714Y-46890380D01*
X96361238Y-45985619D02*
X96408857Y-45938000D01*
X96504095Y-45890380D01*
X96742190Y-45890380D01*
X96837428Y-45938000D01*
X96885047Y-45985619D01*
X96932666Y-46080857D01*
X96932666Y-46176095D01*
X96885047Y-46318952D01*
X96313619Y-46890380D01*
X96932666Y-46890380D01*
X98087380Y-85931333D02*
X98801666Y-85931333D01*
X98944523Y-85978952D01*
X99039761Y-86074190D01*
X99087380Y-86217047D01*
X99087380Y-86312285D01*
X99087380Y-84931333D02*
X99087380Y-85502761D01*
X99087380Y-85217047D02*
X98087380Y-85217047D01*
X98230238Y-85312285D01*
X98325476Y-85407523D01*
X98373095Y-85502761D01*
X156447380Y-74906095D02*
X155447380Y-74906095D01*
X155447380Y-74668000D01*
X155495000Y-74525142D01*
X155590238Y-74429904D01*
X155685476Y-74382285D01*
X155875952Y-74334666D01*
X156018809Y-74334666D01*
X156209285Y-74382285D01*
X156304523Y-74429904D01*
X156399761Y-74525142D01*
X156447380Y-74668000D01*
X156447380Y-74906095D01*
X155875952Y-73763238D02*
X155828333Y-73858476D01*
X155780714Y-73906095D01*
X155685476Y-73953714D01*
X155637857Y-73953714D01*
X155542619Y-73906095D01*
X155495000Y-73858476D01*
X155447380Y-73763238D01*
X155447380Y-73572761D01*
X155495000Y-73477523D01*
X155542619Y-73429904D01*
X155637857Y-73382285D01*
X155685476Y-73382285D01*
X155780714Y-73429904D01*
X155828333Y-73477523D01*
X155875952Y-73572761D01*
X155875952Y-73763238D01*
X155923571Y-73858476D01*
X155971190Y-73906095D01*
X156066428Y-73953714D01*
X156256904Y-73953714D01*
X156352142Y-73906095D01*
X156399761Y-73858476D01*
X156447380Y-73763238D01*
X156447380Y-73572761D01*
X156399761Y-73477523D01*
X156352142Y-73429904D01*
X156256904Y-73382285D01*
X156066428Y-73382285D01*
X155971190Y-73429904D01*
X155923571Y-73477523D01*
X155875952Y-73572761D01*
X156767380Y-78239904D02*
X155767380Y-78239904D01*
X156767380Y-77668476D02*
X156195952Y-78097047D01*
X155767380Y-77668476D02*
X156338809Y-78239904D01*
X156447380Y-55856095D02*
X155447380Y-55856095D01*
X155447380Y-55618000D01*
X155495000Y-55475142D01*
X155590238Y-55379904D01*
X155685476Y-55332285D01*
X155875952Y-55284666D01*
X156018809Y-55284666D01*
X156209285Y-55332285D01*
X156304523Y-55379904D01*
X156399761Y-55475142D01*
X156447380Y-55618000D01*
X156447380Y-55856095D01*
X155447380Y-54951333D02*
X155447380Y-54284666D01*
X156447380Y-54713238D01*
X156767380Y-59189904D02*
X155767380Y-59189904D01*
X156767380Y-58618476D02*
X156195952Y-59047047D01*
X155767380Y-58618476D02*
X156338809Y-59189904D01*
X137397380Y-74906095D02*
X136397380Y-74906095D01*
X136397380Y-74668000D01*
X136445000Y-74525142D01*
X136540238Y-74429904D01*
X136635476Y-74382285D01*
X136825952Y-74334666D01*
X136968809Y-74334666D01*
X137159285Y-74382285D01*
X137254523Y-74429904D01*
X137349761Y-74525142D01*
X137397380Y-74668000D01*
X137397380Y-74906095D01*
X136397380Y-73477523D02*
X136397380Y-73668000D01*
X136445000Y-73763238D01*
X136492619Y-73810857D01*
X136635476Y-73906095D01*
X136825952Y-73953714D01*
X137206904Y-73953714D01*
X137302142Y-73906095D01*
X137349761Y-73858476D01*
X137397380Y-73763238D01*
X137397380Y-73572761D01*
X137349761Y-73477523D01*
X137302142Y-73429904D01*
X137206904Y-73382285D01*
X136968809Y-73382285D01*
X136873571Y-73429904D01*
X136825952Y-73477523D01*
X136778333Y-73572761D01*
X136778333Y-73763238D01*
X136825952Y-73858476D01*
X136873571Y-73906095D01*
X136968809Y-73953714D01*
X137717380Y-78239904D02*
X136717380Y-78239904D01*
X137717380Y-77668476D02*
X137145952Y-78097047D01*
X136717380Y-77668476D02*
X137288809Y-78239904D01*
X137397380Y-55856095D02*
X136397380Y-55856095D01*
X136397380Y-55618000D01*
X136445000Y-55475142D01*
X136540238Y-55379904D01*
X136635476Y-55332285D01*
X136825952Y-55284666D01*
X136968809Y-55284666D01*
X137159285Y-55332285D01*
X137254523Y-55379904D01*
X137349761Y-55475142D01*
X137397380Y-55618000D01*
X137397380Y-55856095D01*
X136397380Y-54379904D02*
X136397380Y-54856095D01*
X136873571Y-54903714D01*
X136825952Y-54856095D01*
X136778333Y-54760857D01*
X136778333Y-54522761D01*
X136825952Y-54427523D01*
X136873571Y-54379904D01*
X136968809Y-54332285D01*
X137206904Y-54332285D01*
X137302142Y-54379904D01*
X137349761Y-54427523D01*
X137397380Y-54522761D01*
X137397380Y-54760857D01*
X137349761Y-54856095D01*
X137302142Y-54903714D01*
X137717380Y-59189904D02*
X136717380Y-59189904D01*
X137717380Y-58618476D02*
X137145952Y-59047047D01*
X136717380Y-58618476D02*
X137288809Y-59189904D01*
X128206666Y-65428761D02*
X128349523Y-65476380D01*
X128587619Y-65476380D01*
X128682857Y-65428761D01*
X128730476Y-65381142D01*
X128778095Y-65285904D01*
X128778095Y-65190666D01*
X128730476Y-65095428D01*
X128682857Y-65047809D01*
X128587619Y-65000190D01*
X128397142Y-64952571D01*
X128301904Y-64904952D01*
X128254285Y-64857333D01*
X128206666Y-64762095D01*
X128206666Y-64666857D01*
X128254285Y-64571619D01*
X128301904Y-64524000D01*
X128397142Y-64476380D01*
X128635238Y-64476380D01*
X128778095Y-64524000D01*
X129111428Y-64476380D02*
X129349523Y-65476380D01*
X129540000Y-64762095D01*
X129730476Y-65476380D01*
X129968571Y-64476380D01*
X130778095Y-64809714D02*
X130778095Y-65476380D01*
X130540000Y-64428761D02*
X130301904Y-65143047D01*
X130920952Y-65143047D01*
X128206666Y-46378761D02*
X128349523Y-46426380D01*
X128587619Y-46426380D01*
X128682857Y-46378761D01*
X128730476Y-46331142D01*
X128778095Y-46235904D01*
X128778095Y-46140666D01*
X128730476Y-46045428D01*
X128682857Y-45997809D01*
X128587619Y-45950190D01*
X128397142Y-45902571D01*
X128301904Y-45854952D01*
X128254285Y-45807333D01*
X128206666Y-45712095D01*
X128206666Y-45616857D01*
X128254285Y-45521619D01*
X128301904Y-45474000D01*
X128397142Y-45426380D01*
X128635238Y-45426380D01*
X128778095Y-45474000D01*
X129111428Y-45426380D02*
X129349523Y-46426380D01*
X129540000Y-45712095D01*
X129730476Y-46426380D01*
X129968571Y-45426380D01*
X130254285Y-45426380D02*
X130873333Y-45426380D01*
X130540000Y-45807333D01*
X130682857Y-45807333D01*
X130778095Y-45854952D01*
X130825714Y-45902571D01*
X130873333Y-45997809D01*
X130873333Y-46235904D01*
X130825714Y-46331142D01*
X130778095Y-46378761D01*
X130682857Y-46426380D01*
X130397142Y-46426380D01*
X130301904Y-46378761D01*
X130254285Y-46331142D01*
X109156666Y-65428761D02*
X109299523Y-65476380D01*
X109537619Y-65476380D01*
X109632857Y-65428761D01*
X109680476Y-65381142D01*
X109728095Y-65285904D01*
X109728095Y-65190666D01*
X109680476Y-65095428D01*
X109632857Y-65047809D01*
X109537619Y-65000190D01*
X109347142Y-64952571D01*
X109251904Y-64904952D01*
X109204285Y-64857333D01*
X109156666Y-64762095D01*
X109156666Y-64666857D01*
X109204285Y-64571619D01*
X109251904Y-64524000D01*
X109347142Y-64476380D01*
X109585238Y-64476380D01*
X109728095Y-64524000D01*
X110061428Y-64476380D02*
X110299523Y-65476380D01*
X110490000Y-64762095D01*
X110680476Y-65476380D01*
X110918571Y-64476380D01*
X111251904Y-64571619D02*
X111299523Y-64524000D01*
X111394761Y-64476380D01*
X111632857Y-64476380D01*
X111728095Y-64524000D01*
X111775714Y-64571619D01*
X111823333Y-64666857D01*
X111823333Y-64762095D01*
X111775714Y-64904952D01*
X111204285Y-65476380D01*
X111823333Y-65476380D01*
X118347380Y-74906095D02*
X117347380Y-74906095D01*
X117347380Y-74668000D01*
X117395000Y-74525142D01*
X117490238Y-74429904D01*
X117585476Y-74382285D01*
X117775952Y-74334666D01*
X117918809Y-74334666D01*
X118109285Y-74382285D01*
X118204523Y-74429904D01*
X118299761Y-74525142D01*
X118347380Y-74668000D01*
X118347380Y-74906095D01*
X117680714Y-73477523D02*
X118347380Y-73477523D01*
X117299761Y-73715619D02*
X118014047Y-73953714D01*
X118014047Y-73334666D01*
X118667380Y-78239904D02*
X117667380Y-78239904D01*
X118667380Y-77668476D02*
X118095952Y-78097047D01*
X117667380Y-77668476D02*
X118238809Y-78239904D01*
X118347380Y-55856095D02*
X117347380Y-55856095D01*
X117347380Y-55618000D01*
X117395000Y-55475142D01*
X117490238Y-55379904D01*
X117585476Y-55332285D01*
X117775952Y-55284666D01*
X117918809Y-55284666D01*
X118109285Y-55332285D01*
X118204523Y-55379904D01*
X118299761Y-55475142D01*
X118347380Y-55618000D01*
X118347380Y-55856095D01*
X117347380Y-54951333D02*
X117347380Y-54332285D01*
X117728333Y-54665619D01*
X117728333Y-54522761D01*
X117775952Y-54427523D01*
X117823571Y-54379904D01*
X117918809Y-54332285D01*
X118156904Y-54332285D01*
X118252142Y-54379904D01*
X118299761Y-54427523D01*
X118347380Y-54522761D01*
X118347380Y-54808476D01*
X118299761Y-54903714D01*
X118252142Y-54951333D01*
X118667380Y-59189904D02*
X117667380Y-59189904D01*
X118667380Y-58618476D02*
X118095952Y-59047047D01*
X117667380Y-58618476D02*
X118238809Y-59189904D01*
X99297380Y-74906095D02*
X98297380Y-74906095D01*
X98297380Y-74668000D01*
X98345000Y-74525142D01*
X98440238Y-74429904D01*
X98535476Y-74382285D01*
X98725952Y-74334666D01*
X98868809Y-74334666D01*
X99059285Y-74382285D01*
X99154523Y-74429904D01*
X99249761Y-74525142D01*
X99297380Y-74668000D01*
X99297380Y-74906095D01*
X98392619Y-73953714D02*
X98345000Y-73906095D01*
X98297380Y-73810857D01*
X98297380Y-73572761D01*
X98345000Y-73477523D01*
X98392619Y-73429904D01*
X98487857Y-73382285D01*
X98583095Y-73382285D01*
X98725952Y-73429904D01*
X99297380Y-74001333D01*
X99297380Y-73382285D01*
X99617380Y-78239904D02*
X98617380Y-78239904D01*
X99617380Y-77668476D02*
X99045952Y-78097047D01*
X98617380Y-77668476D02*
X99188809Y-78239904D01*
X99297380Y-55856095D02*
X98297380Y-55856095D01*
X98297380Y-55618000D01*
X98345000Y-55475142D01*
X98440238Y-55379904D01*
X98535476Y-55332285D01*
X98725952Y-55284666D01*
X98868809Y-55284666D01*
X99059285Y-55332285D01*
X99154523Y-55379904D01*
X99249761Y-55475142D01*
X99297380Y-55618000D01*
X99297380Y-55856095D01*
X99297380Y-54332285D02*
X99297380Y-54903714D01*
X99297380Y-54618000D02*
X98297380Y-54618000D01*
X98440238Y-54713238D01*
X98535476Y-54808476D01*
X98583095Y-54903714D01*
X99617380Y-59189904D02*
X98617380Y-59189904D01*
X99617380Y-58618476D02*
X99045952Y-59047047D01*
X98617380Y-58618476D02*
X99188809Y-59189904D01*
M02*
