G04 #@! TF.GenerationSoftware,KiCad,Pcbnew,(5.1.2)-1*
G04 #@! TF.CreationDate,2019-05-30T07:31:40-07:00*
G04 #@! TF.ProjectId,mechanical_keyboard_mk0,6d656368-616e-4696-9361-6c5f6b657962,rev?*
G04 #@! TF.SameCoordinates,Original*
G04 #@! TF.FileFunction,Copper,L1,Top*
G04 #@! TF.FilePolarity,Positive*
%FSLAX46Y46*%
G04 Gerber Fmt 4.6, Leading zero omitted, Abs format (unit mm)*
G04 Created by KiCad (PCBNEW (5.1.2)-1) date 2019-05-30 07:31:40*
%MOMM*%
%LPD*%
G04 APERTURE LIST*
%ADD10C,2.200000*%
%ADD11O,1.700000X1.700000*%
%ADD12R,1.700000X1.700000*%
%ADD13O,1.600000X1.600000*%
%ADD14R,1.600000X1.600000*%
%ADD15C,0.304800*%
G04 APERTURE END LIST*
D10*
X106680000Y-51308000D03*
X113030000Y-48768000D03*
X163830000Y-70358000D03*
X170180000Y-67818000D03*
X163830000Y-51308000D03*
X170180000Y-48768000D03*
X144780000Y-70358000D03*
X151130000Y-67818000D03*
X144780000Y-51308000D03*
X151130000Y-48768000D03*
D11*
X96266000Y-51308000D03*
D12*
X96266000Y-48768000D03*
D11*
X108585000Y-85598000D03*
X106045000Y-85598000D03*
X103505000Y-85598000D03*
D12*
X100965000Y-85598000D03*
D13*
X158115000Y-70358000D03*
D14*
X158115000Y-77978000D03*
D13*
X158115000Y-51308000D03*
D14*
X158115000Y-58928000D03*
D13*
X139065000Y-70358000D03*
D14*
X139065000Y-77978000D03*
D13*
X139065000Y-51308000D03*
D14*
X139065000Y-58928000D03*
D10*
X125730000Y-70358000D03*
X132080000Y-67818000D03*
X125730000Y-51308000D03*
X132080000Y-48768000D03*
X106680000Y-70358000D03*
X113030000Y-67818000D03*
D13*
X120015000Y-70358000D03*
D14*
X120015000Y-77978000D03*
D13*
X120015000Y-51308000D03*
D14*
X120015000Y-58928000D03*
D13*
X100965000Y-70358000D03*
D14*
X100965000Y-77978000D03*
D13*
X100965000Y-51308000D03*
D14*
X100965000Y-58928000D03*
D15*
X106680000Y-51308000D02*
X105124366Y-51308000D01*
X105124366Y-51308000D02*
X100965000Y-51308000D01*
X106680000Y-70358000D02*
X105124366Y-70358000D01*
X105124366Y-70358000D02*
X100965000Y-70358000D01*
X125730000Y-51308000D02*
X120015000Y-51308000D01*
X125730000Y-70358000D02*
X124174366Y-70358000D01*
X124174366Y-70358000D02*
X120015000Y-70358000D01*
X96266000Y-48768000D02*
X113030000Y-48768000D01*
X113030000Y-48768000D02*
X132080000Y-48768000D01*
X132080000Y-48768000D02*
X151765000Y-48768000D01*
X151130000Y-48768000D02*
X165735000Y-48768000D01*
X165735000Y-48768000D02*
X170180000Y-48768000D01*
X113030000Y-67818000D02*
X132080000Y-67818000D01*
X132080000Y-67818000D02*
X151130000Y-67818000D01*
X151130000Y-67818000D02*
X169545000Y-67818000D01*
X96266000Y-51308000D02*
X96266000Y-62484000D01*
X96266000Y-62484000D02*
X101600000Y-67818000D01*
X101600000Y-67818000D02*
X113030000Y-67818000D01*
X144780000Y-51308000D02*
X139065000Y-51308000D01*
X144780000Y-70358000D02*
X139065000Y-70358000D01*
X163830000Y-51308000D02*
X158115000Y-51308000D01*
X163830000Y-70358000D02*
X158115000Y-70358000D01*
M02*
