G04 #@! TF.GenerationSoftware,KiCad,Pcbnew,(5.1.2)-1*
G04 #@! TF.CreationDate,2019-05-30T07:31:40-07:00*
G04 #@! TF.ProjectId,mechanical_keyboard_mk0,6d656368-616e-4696-9361-6c5f6b657962,rev?*
G04 #@! TF.SameCoordinates,Original*
G04 #@! TF.FileFunction,Soldermask,Bot*
G04 #@! TF.FilePolarity,Negative*
%FSLAX46Y46*%
G04 Gerber Fmt 4.6, Leading zero omitted, Abs format (unit mm)*
G04 Created by KiCad (PCBNEW (5.1.2)-1) date 2019-05-30 07:31:40*
%MOMM*%
%LPD*%
G04 APERTURE LIST*
%ADD10C,0.100000*%
G04 APERTURE END LIST*
D10*
G36*
X108695443Y-84703519D02*
G01*
X108761627Y-84710037D01*
X108931466Y-84761557D01*
X109087991Y-84845222D01*
X109123729Y-84874552D01*
X109225186Y-84957814D01*
X109308448Y-85059271D01*
X109337778Y-85095009D01*
X109421443Y-85251534D01*
X109472963Y-85421373D01*
X109490359Y-85598000D01*
X109472963Y-85774627D01*
X109421443Y-85944466D01*
X109337778Y-86100991D01*
X109308448Y-86136729D01*
X109225186Y-86238186D01*
X109123729Y-86321448D01*
X109087991Y-86350778D01*
X108931466Y-86434443D01*
X108761627Y-86485963D01*
X108695442Y-86492482D01*
X108629260Y-86499000D01*
X108540740Y-86499000D01*
X108474558Y-86492482D01*
X108408373Y-86485963D01*
X108238534Y-86434443D01*
X108082009Y-86350778D01*
X108046271Y-86321448D01*
X107944814Y-86238186D01*
X107861552Y-86136729D01*
X107832222Y-86100991D01*
X107748557Y-85944466D01*
X107697037Y-85774627D01*
X107679641Y-85598000D01*
X107697037Y-85421373D01*
X107748557Y-85251534D01*
X107832222Y-85095009D01*
X107861552Y-85059271D01*
X107944814Y-84957814D01*
X108046271Y-84874552D01*
X108082009Y-84845222D01*
X108238534Y-84761557D01*
X108408373Y-84710037D01*
X108474557Y-84703519D01*
X108540740Y-84697000D01*
X108629260Y-84697000D01*
X108695443Y-84703519D01*
X108695443Y-84703519D01*
G37*
G36*
X101866000Y-86499000D02*
G01*
X100064000Y-86499000D01*
X100064000Y-84697000D01*
X101866000Y-84697000D01*
X101866000Y-86499000D01*
X101866000Y-86499000D01*
G37*
G36*
X103615443Y-84703519D02*
G01*
X103681627Y-84710037D01*
X103851466Y-84761557D01*
X104007991Y-84845222D01*
X104043729Y-84874552D01*
X104145186Y-84957814D01*
X104228448Y-85059271D01*
X104257778Y-85095009D01*
X104341443Y-85251534D01*
X104392963Y-85421373D01*
X104410359Y-85598000D01*
X104392963Y-85774627D01*
X104341443Y-85944466D01*
X104257778Y-86100991D01*
X104228448Y-86136729D01*
X104145186Y-86238186D01*
X104043729Y-86321448D01*
X104007991Y-86350778D01*
X103851466Y-86434443D01*
X103681627Y-86485963D01*
X103615442Y-86492482D01*
X103549260Y-86499000D01*
X103460740Y-86499000D01*
X103394558Y-86492482D01*
X103328373Y-86485963D01*
X103158534Y-86434443D01*
X103002009Y-86350778D01*
X102966271Y-86321448D01*
X102864814Y-86238186D01*
X102781552Y-86136729D01*
X102752222Y-86100991D01*
X102668557Y-85944466D01*
X102617037Y-85774627D01*
X102599641Y-85598000D01*
X102617037Y-85421373D01*
X102668557Y-85251534D01*
X102752222Y-85095009D01*
X102781552Y-85059271D01*
X102864814Y-84957814D01*
X102966271Y-84874552D01*
X103002009Y-84845222D01*
X103158534Y-84761557D01*
X103328373Y-84710037D01*
X103394557Y-84703519D01*
X103460740Y-84697000D01*
X103549260Y-84697000D01*
X103615443Y-84703519D01*
X103615443Y-84703519D01*
G37*
G36*
X106155443Y-84703519D02*
G01*
X106221627Y-84710037D01*
X106391466Y-84761557D01*
X106547991Y-84845222D01*
X106583729Y-84874552D01*
X106685186Y-84957814D01*
X106768448Y-85059271D01*
X106797778Y-85095009D01*
X106881443Y-85251534D01*
X106932963Y-85421373D01*
X106950359Y-85598000D01*
X106932963Y-85774627D01*
X106881443Y-85944466D01*
X106797778Y-86100991D01*
X106768448Y-86136729D01*
X106685186Y-86238186D01*
X106583729Y-86321448D01*
X106547991Y-86350778D01*
X106391466Y-86434443D01*
X106221627Y-86485963D01*
X106155442Y-86492482D01*
X106089260Y-86499000D01*
X106000740Y-86499000D01*
X105934558Y-86492482D01*
X105868373Y-86485963D01*
X105698534Y-86434443D01*
X105542009Y-86350778D01*
X105506271Y-86321448D01*
X105404814Y-86238186D01*
X105321552Y-86136729D01*
X105292222Y-86100991D01*
X105208557Y-85944466D01*
X105157037Y-85774627D01*
X105139641Y-85598000D01*
X105157037Y-85421373D01*
X105208557Y-85251534D01*
X105292222Y-85095009D01*
X105321552Y-85059271D01*
X105404814Y-84957814D01*
X105506271Y-84874552D01*
X105542009Y-84845222D01*
X105698534Y-84761557D01*
X105868373Y-84710037D01*
X105934557Y-84703519D01*
X106000740Y-84697000D01*
X106089260Y-84697000D01*
X106155443Y-84703519D01*
X106155443Y-84703519D01*
G37*
G36*
X101816000Y-78829000D02*
G01*
X100114000Y-78829000D01*
X100114000Y-77127000D01*
X101816000Y-77127000D01*
X101816000Y-78829000D01*
X101816000Y-78829000D01*
G37*
G36*
X120866000Y-78829000D02*
G01*
X119164000Y-78829000D01*
X119164000Y-77127000D01*
X120866000Y-77127000D01*
X120866000Y-78829000D01*
X120866000Y-78829000D01*
G37*
G36*
X139916000Y-78829000D02*
G01*
X138214000Y-78829000D01*
X138214000Y-77127000D01*
X139916000Y-77127000D01*
X139916000Y-78829000D01*
X139916000Y-78829000D01*
G37*
G36*
X158966000Y-78829000D02*
G01*
X157264000Y-78829000D01*
X157264000Y-77127000D01*
X158966000Y-77127000D01*
X158966000Y-78829000D01*
X158966000Y-78829000D01*
G37*
G36*
X149188254Y-70925818D02*
G01*
X149533938Y-71069005D01*
X149561513Y-71080427D01*
X149897436Y-71304884D01*
X150183116Y-71590564D01*
X150407574Y-71926489D01*
X150562182Y-72299746D01*
X150641000Y-72695993D01*
X150641000Y-73100007D01*
X150562182Y-73496254D01*
X150407574Y-73869511D01*
X150407573Y-73869513D01*
X150183116Y-74205436D01*
X149897436Y-74491116D01*
X149561513Y-74715573D01*
X149561512Y-74715574D01*
X149561511Y-74715574D01*
X149188254Y-74870182D01*
X148792007Y-74949000D01*
X148387993Y-74949000D01*
X147991746Y-74870182D01*
X147618489Y-74715574D01*
X147618488Y-74715574D01*
X147618487Y-74715573D01*
X147282564Y-74491116D01*
X146996884Y-74205436D01*
X146772427Y-73869513D01*
X146772426Y-73869511D01*
X146617818Y-73496254D01*
X146539000Y-73100007D01*
X146539000Y-72695993D01*
X146617818Y-72299746D01*
X146772426Y-71926489D01*
X146996884Y-71590564D01*
X147282564Y-71304884D01*
X147618487Y-71080427D01*
X147646062Y-71069005D01*
X147991746Y-70925818D01*
X148387993Y-70847000D01*
X148792007Y-70847000D01*
X149188254Y-70925818D01*
X149188254Y-70925818D01*
G37*
G36*
X168238254Y-70925818D02*
G01*
X168583938Y-71069005D01*
X168611513Y-71080427D01*
X168947436Y-71304884D01*
X169233116Y-71590564D01*
X169457574Y-71926489D01*
X169612182Y-72299746D01*
X169691000Y-72695993D01*
X169691000Y-73100007D01*
X169612182Y-73496254D01*
X169457574Y-73869511D01*
X169457573Y-73869513D01*
X169233116Y-74205436D01*
X168947436Y-74491116D01*
X168611513Y-74715573D01*
X168611512Y-74715574D01*
X168611511Y-74715574D01*
X168238254Y-74870182D01*
X167842007Y-74949000D01*
X167437993Y-74949000D01*
X167041746Y-74870182D01*
X166668489Y-74715574D01*
X166668488Y-74715574D01*
X166668487Y-74715573D01*
X166332564Y-74491116D01*
X166046884Y-74205436D01*
X165822427Y-73869513D01*
X165822426Y-73869511D01*
X165667818Y-73496254D01*
X165589000Y-73100007D01*
X165589000Y-72695993D01*
X165667818Y-72299746D01*
X165822426Y-71926489D01*
X166046884Y-71590564D01*
X166332564Y-71304884D01*
X166668487Y-71080427D01*
X166696062Y-71069005D01*
X167041746Y-70925818D01*
X167437993Y-70847000D01*
X167842007Y-70847000D01*
X168238254Y-70925818D01*
X168238254Y-70925818D01*
G37*
G36*
X111088254Y-70925818D02*
G01*
X111433938Y-71069005D01*
X111461513Y-71080427D01*
X111797436Y-71304884D01*
X112083116Y-71590564D01*
X112307574Y-71926489D01*
X112462182Y-72299746D01*
X112541000Y-72695993D01*
X112541000Y-73100007D01*
X112462182Y-73496254D01*
X112307574Y-73869511D01*
X112307573Y-73869513D01*
X112083116Y-74205436D01*
X111797436Y-74491116D01*
X111461513Y-74715573D01*
X111461512Y-74715574D01*
X111461511Y-74715574D01*
X111088254Y-74870182D01*
X110692007Y-74949000D01*
X110287993Y-74949000D01*
X109891746Y-74870182D01*
X109518489Y-74715574D01*
X109518488Y-74715574D01*
X109518487Y-74715573D01*
X109182564Y-74491116D01*
X108896884Y-74205436D01*
X108672427Y-73869513D01*
X108672426Y-73869511D01*
X108517818Y-73496254D01*
X108439000Y-73100007D01*
X108439000Y-72695993D01*
X108517818Y-72299746D01*
X108672426Y-71926489D01*
X108896884Y-71590564D01*
X109182564Y-71304884D01*
X109518487Y-71080427D01*
X109546062Y-71069005D01*
X109891746Y-70925818D01*
X110287993Y-70847000D01*
X110692007Y-70847000D01*
X111088254Y-70925818D01*
X111088254Y-70925818D01*
G37*
G36*
X130138254Y-70925818D02*
G01*
X130483938Y-71069005D01*
X130511513Y-71080427D01*
X130847436Y-71304884D01*
X131133116Y-71590564D01*
X131357574Y-71926489D01*
X131512182Y-72299746D01*
X131591000Y-72695993D01*
X131591000Y-73100007D01*
X131512182Y-73496254D01*
X131357574Y-73869511D01*
X131357573Y-73869513D01*
X131133116Y-74205436D01*
X130847436Y-74491116D01*
X130511513Y-74715573D01*
X130511512Y-74715574D01*
X130511511Y-74715574D01*
X130138254Y-74870182D01*
X129742007Y-74949000D01*
X129337993Y-74949000D01*
X128941746Y-74870182D01*
X128568489Y-74715574D01*
X128568488Y-74715574D01*
X128568487Y-74715573D01*
X128232564Y-74491116D01*
X127946884Y-74205436D01*
X127722427Y-73869513D01*
X127722426Y-73869511D01*
X127567818Y-73496254D01*
X127489000Y-73100007D01*
X127489000Y-72695993D01*
X127567818Y-72299746D01*
X127722426Y-71926489D01*
X127946884Y-71590564D01*
X128232564Y-71304884D01*
X128568487Y-71080427D01*
X128596062Y-71069005D01*
X128941746Y-70925818D01*
X129337993Y-70847000D01*
X129742007Y-70847000D01*
X130138254Y-70925818D01*
X130138254Y-70925818D01*
G37*
G36*
X115683512Y-72001927D02*
G01*
X115832812Y-72031624D01*
X115996784Y-72099544D01*
X116144354Y-72198147D01*
X116269853Y-72323646D01*
X116368456Y-72471216D01*
X116436376Y-72635188D01*
X116471000Y-72809259D01*
X116471000Y-72986741D01*
X116436376Y-73160812D01*
X116368456Y-73324784D01*
X116269853Y-73472354D01*
X116144354Y-73597853D01*
X115996784Y-73696456D01*
X115832812Y-73764376D01*
X115683512Y-73794073D01*
X115658742Y-73799000D01*
X115481258Y-73799000D01*
X115456488Y-73794073D01*
X115307188Y-73764376D01*
X115143216Y-73696456D01*
X114995646Y-73597853D01*
X114870147Y-73472354D01*
X114771544Y-73324784D01*
X114703624Y-73160812D01*
X114669000Y-72986741D01*
X114669000Y-72809259D01*
X114703624Y-72635188D01*
X114771544Y-72471216D01*
X114870147Y-72323646D01*
X114995646Y-72198147D01*
X115143216Y-72099544D01*
X115307188Y-72031624D01*
X115456488Y-72001927D01*
X115481258Y-71997000D01*
X115658742Y-71997000D01*
X115683512Y-72001927D01*
X115683512Y-72001927D01*
G37*
G36*
X153783512Y-72001927D02*
G01*
X153932812Y-72031624D01*
X154096784Y-72099544D01*
X154244354Y-72198147D01*
X154369853Y-72323646D01*
X154468456Y-72471216D01*
X154536376Y-72635188D01*
X154571000Y-72809259D01*
X154571000Y-72986741D01*
X154536376Y-73160812D01*
X154468456Y-73324784D01*
X154369853Y-73472354D01*
X154244354Y-73597853D01*
X154096784Y-73696456D01*
X153932812Y-73764376D01*
X153783512Y-73794073D01*
X153758742Y-73799000D01*
X153581258Y-73799000D01*
X153556488Y-73794073D01*
X153407188Y-73764376D01*
X153243216Y-73696456D01*
X153095646Y-73597853D01*
X152970147Y-73472354D01*
X152871544Y-73324784D01*
X152803624Y-73160812D01*
X152769000Y-72986741D01*
X152769000Y-72809259D01*
X152803624Y-72635188D01*
X152871544Y-72471216D01*
X152970147Y-72323646D01*
X153095646Y-72198147D01*
X153243216Y-72099544D01*
X153407188Y-72031624D01*
X153556488Y-72001927D01*
X153581258Y-71997000D01*
X153758742Y-71997000D01*
X153783512Y-72001927D01*
X153783512Y-72001927D01*
G37*
G36*
X162673512Y-72001927D02*
G01*
X162822812Y-72031624D01*
X162986784Y-72099544D01*
X163134354Y-72198147D01*
X163259853Y-72323646D01*
X163358456Y-72471216D01*
X163426376Y-72635188D01*
X163461000Y-72809259D01*
X163461000Y-72986741D01*
X163426376Y-73160812D01*
X163358456Y-73324784D01*
X163259853Y-73472354D01*
X163134354Y-73597853D01*
X162986784Y-73696456D01*
X162822812Y-73764376D01*
X162673512Y-73794073D01*
X162648742Y-73799000D01*
X162471258Y-73799000D01*
X162446488Y-73794073D01*
X162297188Y-73764376D01*
X162133216Y-73696456D01*
X161985646Y-73597853D01*
X161860147Y-73472354D01*
X161761544Y-73324784D01*
X161693624Y-73160812D01*
X161659000Y-72986741D01*
X161659000Y-72809259D01*
X161693624Y-72635188D01*
X161761544Y-72471216D01*
X161860147Y-72323646D01*
X161985646Y-72198147D01*
X162133216Y-72099544D01*
X162297188Y-72031624D01*
X162446488Y-72001927D01*
X162471258Y-71997000D01*
X162648742Y-71997000D01*
X162673512Y-72001927D01*
X162673512Y-72001927D01*
G37*
G36*
X134733512Y-72001927D02*
G01*
X134882812Y-72031624D01*
X135046784Y-72099544D01*
X135194354Y-72198147D01*
X135319853Y-72323646D01*
X135418456Y-72471216D01*
X135486376Y-72635188D01*
X135521000Y-72809259D01*
X135521000Y-72986741D01*
X135486376Y-73160812D01*
X135418456Y-73324784D01*
X135319853Y-73472354D01*
X135194354Y-73597853D01*
X135046784Y-73696456D01*
X134882812Y-73764376D01*
X134733512Y-73794073D01*
X134708742Y-73799000D01*
X134531258Y-73799000D01*
X134506488Y-73794073D01*
X134357188Y-73764376D01*
X134193216Y-73696456D01*
X134045646Y-73597853D01*
X133920147Y-73472354D01*
X133821544Y-73324784D01*
X133753624Y-73160812D01*
X133719000Y-72986741D01*
X133719000Y-72809259D01*
X133753624Y-72635188D01*
X133821544Y-72471216D01*
X133920147Y-72323646D01*
X134045646Y-72198147D01*
X134193216Y-72099544D01*
X134357188Y-72031624D01*
X134506488Y-72001927D01*
X134531258Y-71997000D01*
X134708742Y-71997000D01*
X134733512Y-72001927D01*
X134733512Y-72001927D01*
G37*
G36*
X124573512Y-72001927D02*
G01*
X124722812Y-72031624D01*
X124886784Y-72099544D01*
X125034354Y-72198147D01*
X125159853Y-72323646D01*
X125258456Y-72471216D01*
X125326376Y-72635188D01*
X125361000Y-72809259D01*
X125361000Y-72986741D01*
X125326376Y-73160812D01*
X125258456Y-73324784D01*
X125159853Y-73472354D01*
X125034354Y-73597853D01*
X124886784Y-73696456D01*
X124722812Y-73764376D01*
X124573512Y-73794073D01*
X124548742Y-73799000D01*
X124371258Y-73799000D01*
X124346488Y-73794073D01*
X124197188Y-73764376D01*
X124033216Y-73696456D01*
X123885646Y-73597853D01*
X123760147Y-73472354D01*
X123661544Y-73324784D01*
X123593624Y-73160812D01*
X123559000Y-72986741D01*
X123559000Y-72809259D01*
X123593624Y-72635188D01*
X123661544Y-72471216D01*
X123760147Y-72323646D01*
X123885646Y-72198147D01*
X124033216Y-72099544D01*
X124197188Y-72031624D01*
X124346488Y-72001927D01*
X124371258Y-71997000D01*
X124548742Y-71997000D01*
X124573512Y-72001927D01*
X124573512Y-72001927D01*
G37*
G36*
X105523512Y-72001927D02*
G01*
X105672812Y-72031624D01*
X105836784Y-72099544D01*
X105984354Y-72198147D01*
X106109853Y-72323646D01*
X106208456Y-72471216D01*
X106276376Y-72635188D01*
X106311000Y-72809259D01*
X106311000Y-72986741D01*
X106276376Y-73160812D01*
X106208456Y-73324784D01*
X106109853Y-73472354D01*
X105984354Y-73597853D01*
X105836784Y-73696456D01*
X105672812Y-73764376D01*
X105523512Y-73794073D01*
X105498742Y-73799000D01*
X105321258Y-73799000D01*
X105296488Y-73794073D01*
X105147188Y-73764376D01*
X104983216Y-73696456D01*
X104835646Y-73597853D01*
X104710147Y-73472354D01*
X104611544Y-73324784D01*
X104543624Y-73160812D01*
X104509000Y-72986741D01*
X104509000Y-72809259D01*
X104543624Y-72635188D01*
X104611544Y-72471216D01*
X104710147Y-72323646D01*
X104835646Y-72198147D01*
X104983216Y-72099544D01*
X105147188Y-72031624D01*
X105296488Y-72001927D01*
X105321258Y-71997000D01*
X105498742Y-71997000D01*
X105523512Y-72001927D01*
X105523512Y-72001927D01*
G37*
G36*
X143623512Y-72001927D02*
G01*
X143772812Y-72031624D01*
X143936784Y-72099544D01*
X144084354Y-72198147D01*
X144209853Y-72323646D01*
X144308456Y-72471216D01*
X144376376Y-72635188D01*
X144411000Y-72809259D01*
X144411000Y-72986741D01*
X144376376Y-73160812D01*
X144308456Y-73324784D01*
X144209853Y-73472354D01*
X144084354Y-73597853D01*
X143936784Y-73696456D01*
X143772812Y-73764376D01*
X143623512Y-73794073D01*
X143598742Y-73799000D01*
X143421258Y-73799000D01*
X143396488Y-73794073D01*
X143247188Y-73764376D01*
X143083216Y-73696456D01*
X142935646Y-73597853D01*
X142810147Y-73472354D01*
X142711544Y-73324784D01*
X142643624Y-73160812D01*
X142609000Y-72986741D01*
X142609000Y-72809259D01*
X142643624Y-72635188D01*
X142711544Y-72471216D01*
X142810147Y-72323646D01*
X142935646Y-72198147D01*
X143083216Y-72099544D01*
X143247188Y-72031624D01*
X143396488Y-72001927D01*
X143421258Y-71997000D01*
X143598742Y-71997000D01*
X143623512Y-72001927D01*
X143623512Y-72001927D01*
G37*
G36*
X172833512Y-72001927D02*
G01*
X172982812Y-72031624D01*
X173146784Y-72099544D01*
X173294354Y-72198147D01*
X173419853Y-72323646D01*
X173518456Y-72471216D01*
X173586376Y-72635188D01*
X173621000Y-72809259D01*
X173621000Y-72986741D01*
X173586376Y-73160812D01*
X173518456Y-73324784D01*
X173419853Y-73472354D01*
X173294354Y-73597853D01*
X173146784Y-73696456D01*
X172982812Y-73764376D01*
X172833512Y-73794073D01*
X172808742Y-73799000D01*
X172631258Y-73799000D01*
X172606488Y-73794073D01*
X172457188Y-73764376D01*
X172293216Y-73696456D01*
X172145646Y-73597853D01*
X172020147Y-73472354D01*
X171921544Y-73324784D01*
X171853624Y-73160812D01*
X171819000Y-72986741D01*
X171819000Y-72809259D01*
X171853624Y-72635188D01*
X171921544Y-72471216D01*
X172020147Y-72323646D01*
X172145646Y-72198147D01*
X172293216Y-72099544D01*
X172457188Y-72031624D01*
X172606488Y-72001927D01*
X172631258Y-71997000D01*
X172808742Y-71997000D01*
X172833512Y-72001927D01*
X172833512Y-72001927D01*
G37*
G36*
X106904549Y-69229116D02*
G01*
X107015734Y-69251232D01*
X107225203Y-69337997D01*
X107413720Y-69463960D01*
X107574040Y-69624280D01*
X107700003Y-69812797D01*
X107786768Y-70022266D01*
X107831000Y-70244636D01*
X107831000Y-70471364D01*
X107786768Y-70693734D01*
X107700003Y-70903203D01*
X107574040Y-71091720D01*
X107413720Y-71252040D01*
X107225203Y-71378003D01*
X107015734Y-71464768D01*
X106904549Y-71486884D01*
X106793365Y-71509000D01*
X106566635Y-71509000D01*
X106455451Y-71486884D01*
X106344266Y-71464768D01*
X106134797Y-71378003D01*
X105946280Y-71252040D01*
X105785960Y-71091720D01*
X105659997Y-70903203D01*
X105573232Y-70693734D01*
X105529000Y-70471364D01*
X105529000Y-70244636D01*
X105573232Y-70022266D01*
X105659997Y-69812797D01*
X105785960Y-69624280D01*
X105946280Y-69463960D01*
X106134797Y-69337997D01*
X106344266Y-69251232D01*
X106455451Y-69229116D01*
X106566635Y-69207000D01*
X106793365Y-69207000D01*
X106904549Y-69229116D01*
X106904549Y-69229116D01*
G37*
G36*
X164054549Y-69229116D02*
G01*
X164165734Y-69251232D01*
X164375203Y-69337997D01*
X164563720Y-69463960D01*
X164724040Y-69624280D01*
X164850003Y-69812797D01*
X164936768Y-70022266D01*
X164981000Y-70244636D01*
X164981000Y-70471364D01*
X164936768Y-70693734D01*
X164850003Y-70903203D01*
X164724040Y-71091720D01*
X164563720Y-71252040D01*
X164375203Y-71378003D01*
X164165734Y-71464768D01*
X164054549Y-71486884D01*
X163943365Y-71509000D01*
X163716635Y-71509000D01*
X163605451Y-71486884D01*
X163494266Y-71464768D01*
X163284797Y-71378003D01*
X163096280Y-71252040D01*
X162935960Y-71091720D01*
X162809997Y-70903203D01*
X162723232Y-70693734D01*
X162679000Y-70471364D01*
X162679000Y-70244636D01*
X162723232Y-70022266D01*
X162809997Y-69812797D01*
X162935960Y-69624280D01*
X163096280Y-69463960D01*
X163284797Y-69337997D01*
X163494266Y-69251232D01*
X163605451Y-69229116D01*
X163716635Y-69207000D01*
X163943365Y-69207000D01*
X164054549Y-69229116D01*
X164054549Y-69229116D01*
G37*
G36*
X145004549Y-69229116D02*
G01*
X145115734Y-69251232D01*
X145325203Y-69337997D01*
X145513720Y-69463960D01*
X145674040Y-69624280D01*
X145800003Y-69812797D01*
X145886768Y-70022266D01*
X145931000Y-70244636D01*
X145931000Y-70471364D01*
X145886768Y-70693734D01*
X145800003Y-70903203D01*
X145674040Y-71091720D01*
X145513720Y-71252040D01*
X145325203Y-71378003D01*
X145115734Y-71464768D01*
X145004549Y-71486884D01*
X144893365Y-71509000D01*
X144666635Y-71509000D01*
X144555451Y-71486884D01*
X144444266Y-71464768D01*
X144234797Y-71378003D01*
X144046280Y-71252040D01*
X143885960Y-71091720D01*
X143759997Y-70903203D01*
X143673232Y-70693734D01*
X143629000Y-70471364D01*
X143629000Y-70244636D01*
X143673232Y-70022266D01*
X143759997Y-69812797D01*
X143885960Y-69624280D01*
X144046280Y-69463960D01*
X144234797Y-69337997D01*
X144444266Y-69251232D01*
X144555451Y-69229116D01*
X144666635Y-69207000D01*
X144893365Y-69207000D01*
X145004549Y-69229116D01*
X145004549Y-69229116D01*
G37*
G36*
X125954549Y-69229116D02*
G01*
X126065734Y-69251232D01*
X126275203Y-69337997D01*
X126463720Y-69463960D01*
X126624040Y-69624280D01*
X126750003Y-69812797D01*
X126836768Y-70022266D01*
X126881000Y-70244636D01*
X126881000Y-70471364D01*
X126836768Y-70693734D01*
X126750003Y-70903203D01*
X126624040Y-71091720D01*
X126463720Y-71252040D01*
X126275203Y-71378003D01*
X126065734Y-71464768D01*
X125954549Y-71486884D01*
X125843365Y-71509000D01*
X125616635Y-71509000D01*
X125505451Y-71486884D01*
X125394266Y-71464768D01*
X125184797Y-71378003D01*
X124996280Y-71252040D01*
X124835960Y-71091720D01*
X124709997Y-70903203D01*
X124623232Y-70693734D01*
X124579000Y-70471364D01*
X124579000Y-70244636D01*
X124623232Y-70022266D01*
X124709997Y-69812797D01*
X124835960Y-69624280D01*
X124996280Y-69463960D01*
X125184797Y-69337997D01*
X125394266Y-69251232D01*
X125505451Y-69229116D01*
X125616635Y-69207000D01*
X125843365Y-69207000D01*
X125954549Y-69229116D01*
X125954549Y-69229116D01*
G37*
G36*
X158281823Y-69519313D02*
G01*
X158442242Y-69567976D01*
X158547579Y-69624280D01*
X158590078Y-69646996D01*
X158719659Y-69753341D01*
X158826004Y-69882922D01*
X158826005Y-69882924D01*
X158905024Y-70030758D01*
X158953687Y-70191177D01*
X158970117Y-70358000D01*
X158953687Y-70524823D01*
X158905024Y-70685242D01*
X158834114Y-70817906D01*
X158826004Y-70833078D01*
X158719659Y-70962659D01*
X158590078Y-71069004D01*
X158590076Y-71069005D01*
X158442242Y-71148024D01*
X158281823Y-71196687D01*
X158156804Y-71209000D01*
X158073196Y-71209000D01*
X157948177Y-71196687D01*
X157787758Y-71148024D01*
X157639924Y-71069005D01*
X157639922Y-71069004D01*
X157510341Y-70962659D01*
X157403996Y-70833078D01*
X157395886Y-70817906D01*
X157324976Y-70685242D01*
X157276313Y-70524823D01*
X157259883Y-70358000D01*
X157276313Y-70191177D01*
X157324976Y-70030758D01*
X157403995Y-69882924D01*
X157403996Y-69882922D01*
X157510341Y-69753341D01*
X157639922Y-69646996D01*
X157682421Y-69624280D01*
X157787758Y-69567976D01*
X157948177Y-69519313D01*
X158073196Y-69507000D01*
X158156804Y-69507000D01*
X158281823Y-69519313D01*
X158281823Y-69519313D01*
G37*
G36*
X139231823Y-69519313D02*
G01*
X139392242Y-69567976D01*
X139497579Y-69624280D01*
X139540078Y-69646996D01*
X139669659Y-69753341D01*
X139776004Y-69882922D01*
X139776005Y-69882924D01*
X139855024Y-70030758D01*
X139903687Y-70191177D01*
X139920117Y-70358000D01*
X139903687Y-70524823D01*
X139855024Y-70685242D01*
X139784114Y-70817906D01*
X139776004Y-70833078D01*
X139669659Y-70962659D01*
X139540078Y-71069004D01*
X139540076Y-71069005D01*
X139392242Y-71148024D01*
X139231823Y-71196687D01*
X139106804Y-71209000D01*
X139023196Y-71209000D01*
X138898177Y-71196687D01*
X138737758Y-71148024D01*
X138589924Y-71069005D01*
X138589922Y-71069004D01*
X138460341Y-70962659D01*
X138353996Y-70833078D01*
X138345886Y-70817906D01*
X138274976Y-70685242D01*
X138226313Y-70524823D01*
X138209883Y-70358000D01*
X138226313Y-70191177D01*
X138274976Y-70030758D01*
X138353995Y-69882924D01*
X138353996Y-69882922D01*
X138460341Y-69753341D01*
X138589922Y-69646996D01*
X138632421Y-69624280D01*
X138737758Y-69567976D01*
X138898177Y-69519313D01*
X139023196Y-69507000D01*
X139106804Y-69507000D01*
X139231823Y-69519313D01*
X139231823Y-69519313D01*
G37*
G36*
X120181823Y-69519313D02*
G01*
X120342242Y-69567976D01*
X120447579Y-69624280D01*
X120490078Y-69646996D01*
X120619659Y-69753341D01*
X120726004Y-69882922D01*
X120726005Y-69882924D01*
X120805024Y-70030758D01*
X120853687Y-70191177D01*
X120870117Y-70358000D01*
X120853687Y-70524823D01*
X120805024Y-70685242D01*
X120734114Y-70817906D01*
X120726004Y-70833078D01*
X120619659Y-70962659D01*
X120490078Y-71069004D01*
X120490076Y-71069005D01*
X120342242Y-71148024D01*
X120181823Y-71196687D01*
X120056804Y-71209000D01*
X119973196Y-71209000D01*
X119848177Y-71196687D01*
X119687758Y-71148024D01*
X119539924Y-71069005D01*
X119539922Y-71069004D01*
X119410341Y-70962659D01*
X119303996Y-70833078D01*
X119295886Y-70817906D01*
X119224976Y-70685242D01*
X119176313Y-70524823D01*
X119159883Y-70358000D01*
X119176313Y-70191177D01*
X119224976Y-70030758D01*
X119303995Y-69882924D01*
X119303996Y-69882922D01*
X119410341Y-69753341D01*
X119539922Y-69646996D01*
X119582421Y-69624280D01*
X119687758Y-69567976D01*
X119848177Y-69519313D01*
X119973196Y-69507000D01*
X120056804Y-69507000D01*
X120181823Y-69519313D01*
X120181823Y-69519313D01*
G37*
G36*
X101131823Y-69519313D02*
G01*
X101292242Y-69567976D01*
X101397579Y-69624280D01*
X101440078Y-69646996D01*
X101569659Y-69753341D01*
X101676004Y-69882922D01*
X101676005Y-69882924D01*
X101755024Y-70030758D01*
X101803687Y-70191177D01*
X101820117Y-70358000D01*
X101803687Y-70524823D01*
X101755024Y-70685242D01*
X101684114Y-70817906D01*
X101676004Y-70833078D01*
X101569659Y-70962659D01*
X101440078Y-71069004D01*
X101440076Y-71069005D01*
X101292242Y-71148024D01*
X101131823Y-71196687D01*
X101006804Y-71209000D01*
X100923196Y-71209000D01*
X100798177Y-71196687D01*
X100637758Y-71148024D01*
X100489924Y-71069005D01*
X100489922Y-71069004D01*
X100360341Y-70962659D01*
X100253996Y-70833078D01*
X100245886Y-70817906D01*
X100174976Y-70685242D01*
X100126313Y-70524823D01*
X100109883Y-70358000D01*
X100126313Y-70191177D01*
X100174976Y-70030758D01*
X100253995Y-69882924D01*
X100253996Y-69882922D01*
X100360341Y-69753341D01*
X100489922Y-69646996D01*
X100532421Y-69624280D01*
X100637758Y-69567976D01*
X100798177Y-69519313D01*
X100923196Y-69507000D01*
X101006804Y-69507000D01*
X101131823Y-69519313D01*
X101131823Y-69519313D01*
G37*
G36*
X113254549Y-66689116D02*
G01*
X113365734Y-66711232D01*
X113575203Y-66797997D01*
X113763720Y-66923960D01*
X113924040Y-67084280D01*
X114050003Y-67272797D01*
X114136768Y-67482266D01*
X114181000Y-67704636D01*
X114181000Y-67931364D01*
X114136768Y-68153734D01*
X114050003Y-68363203D01*
X113924040Y-68551720D01*
X113763720Y-68712040D01*
X113575203Y-68838003D01*
X113365734Y-68924768D01*
X113254549Y-68946884D01*
X113143365Y-68969000D01*
X112916635Y-68969000D01*
X112805451Y-68946884D01*
X112694266Y-68924768D01*
X112484797Y-68838003D01*
X112296280Y-68712040D01*
X112135960Y-68551720D01*
X112009997Y-68363203D01*
X111923232Y-68153734D01*
X111879000Y-67931364D01*
X111879000Y-67704636D01*
X111923232Y-67482266D01*
X112009997Y-67272797D01*
X112135960Y-67084280D01*
X112296280Y-66923960D01*
X112484797Y-66797997D01*
X112694266Y-66711232D01*
X112805451Y-66689116D01*
X112916635Y-66667000D01*
X113143365Y-66667000D01*
X113254549Y-66689116D01*
X113254549Y-66689116D01*
G37*
G36*
X151354549Y-66689116D02*
G01*
X151465734Y-66711232D01*
X151675203Y-66797997D01*
X151863720Y-66923960D01*
X152024040Y-67084280D01*
X152150003Y-67272797D01*
X152236768Y-67482266D01*
X152281000Y-67704636D01*
X152281000Y-67931364D01*
X152236768Y-68153734D01*
X152150003Y-68363203D01*
X152024040Y-68551720D01*
X151863720Y-68712040D01*
X151675203Y-68838003D01*
X151465734Y-68924768D01*
X151354549Y-68946884D01*
X151243365Y-68969000D01*
X151016635Y-68969000D01*
X150905451Y-68946884D01*
X150794266Y-68924768D01*
X150584797Y-68838003D01*
X150396280Y-68712040D01*
X150235960Y-68551720D01*
X150109997Y-68363203D01*
X150023232Y-68153734D01*
X149979000Y-67931364D01*
X149979000Y-67704636D01*
X150023232Y-67482266D01*
X150109997Y-67272797D01*
X150235960Y-67084280D01*
X150396280Y-66923960D01*
X150584797Y-66797997D01*
X150794266Y-66711232D01*
X150905451Y-66689116D01*
X151016635Y-66667000D01*
X151243365Y-66667000D01*
X151354549Y-66689116D01*
X151354549Y-66689116D01*
G37*
G36*
X132304549Y-66689116D02*
G01*
X132415734Y-66711232D01*
X132625203Y-66797997D01*
X132813720Y-66923960D01*
X132974040Y-67084280D01*
X133100003Y-67272797D01*
X133186768Y-67482266D01*
X133231000Y-67704636D01*
X133231000Y-67931364D01*
X133186768Y-68153734D01*
X133100003Y-68363203D01*
X132974040Y-68551720D01*
X132813720Y-68712040D01*
X132625203Y-68838003D01*
X132415734Y-68924768D01*
X132304549Y-68946884D01*
X132193365Y-68969000D01*
X131966635Y-68969000D01*
X131855451Y-68946884D01*
X131744266Y-68924768D01*
X131534797Y-68838003D01*
X131346280Y-68712040D01*
X131185960Y-68551720D01*
X131059997Y-68363203D01*
X130973232Y-68153734D01*
X130929000Y-67931364D01*
X130929000Y-67704636D01*
X130973232Y-67482266D01*
X131059997Y-67272797D01*
X131185960Y-67084280D01*
X131346280Y-66923960D01*
X131534797Y-66797997D01*
X131744266Y-66711232D01*
X131855451Y-66689116D01*
X131966635Y-66667000D01*
X132193365Y-66667000D01*
X132304549Y-66689116D01*
X132304549Y-66689116D01*
G37*
G36*
X170404549Y-66689116D02*
G01*
X170515734Y-66711232D01*
X170725203Y-66797997D01*
X170913720Y-66923960D01*
X171074040Y-67084280D01*
X171200003Y-67272797D01*
X171286768Y-67482266D01*
X171331000Y-67704636D01*
X171331000Y-67931364D01*
X171286768Y-68153734D01*
X171200003Y-68363203D01*
X171074040Y-68551720D01*
X170913720Y-68712040D01*
X170725203Y-68838003D01*
X170515734Y-68924768D01*
X170404549Y-68946884D01*
X170293365Y-68969000D01*
X170066635Y-68969000D01*
X169955451Y-68946884D01*
X169844266Y-68924768D01*
X169634797Y-68838003D01*
X169446280Y-68712040D01*
X169285960Y-68551720D01*
X169159997Y-68363203D01*
X169073232Y-68153734D01*
X169029000Y-67931364D01*
X169029000Y-67704636D01*
X169073232Y-67482266D01*
X169159997Y-67272797D01*
X169285960Y-67084280D01*
X169446280Y-66923960D01*
X169634797Y-66797997D01*
X169844266Y-66711232D01*
X169955451Y-66689116D01*
X170066635Y-66667000D01*
X170293365Y-66667000D01*
X170404549Y-66689116D01*
X170404549Y-66689116D01*
G37*
G36*
X158966000Y-59779000D02*
G01*
X157264000Y-59779000D01*
X157264000Y-58077000D01*
X158966000Y-58077000D01*
X158966000Y-59779000D01*
X158966000Y-59779000D01*
G37*
G36*
X139916000Y-59779000D02*
G01*
X138214000Y-59779000D01*
X138214000Y-58077000D01*
X139916000Y-58077000D01*
X139916000Y-59779000D01*
X139916000Y-59779000D01*
G37*
G36*
X120866000Y-59779000D02*
G01*
X119164000Y-59779000D01*
X119164000Y-58077000D01*
X120866000Y-58077000D01*
X120866000Y-59779000D01*
X120866000Y-59779000D01*
G37*
G36*
X101816000Y-59779000D02*
G01*
X100114000Y-59779000D01*
X100114000Y-58077000D01*
X101816000Y-58077000D01*
X101816000Y-59779000D01*
X101816000Y-59779000D01*
G37*
G36*
X168238254Y-51875818D02*
G01*
X168583938Y-52019005D01*
X168611513Y-52030427D01*
X168878766Y-52209000D01*
X168947436Y-52254884D01*
X169233116Y-52540564D01*
X169457574Y-52876489D01*
X169612182Y-53249746D01*
X169691000Y-53645993D01*
X169691000Y-54050007D01*
X169612182Y-54446254D01*
X169457574Y-54819511D01*
X169457573Y-54819513D01*
X169233116Y-55155436D01*
X168947436Y-55441116D01*
X168611513Y-55665573D01*
X168611512Y-55665574D01*
X168611511Y-55665574D01*
X168238254Y-55820182D01*
X167842007Y-55899000D01*
X167437993Y-55899000D01*
X167041746Y-55820182D01*
X166668489Y-55665574D01*
X166668488Y-55665574D01*
X166668487Y-55665573D01*
X166332564Y-55441116D01*
X166046884Y-55155436D01*
X165822427Y-54819513D01*
X165822426Y-54819511D01*
X165667818Y-54446254D01*
X165589000Y-54050007D01*
X165589000Y-53645993D01*
X165667818Y-53249746D01*
X165822426Y-52876489D01*
X166046884Y-52540564D01*
X166332564Y-52254884D01*
X166401234Y-52209000D01*
X166668487Y-52030427D01*
X166696062Y-52019005D01*
X167041746Y-51875818D01*
X167437993Y-51797000D01*
X167842007Y-51797000D01*
X168238254Y-51875818D01*
X168238254Y-51875818D01*
G37*
G36*
X111088254Y-51875818D02*
G01*
X111433938Y-52019005D01*
X111461513Y-52030427D01*
X111728766Y-52209000D01*
X111797436Y-52254884D01*
X112083116Y-52540564D01*
X112307574Y-52876489D01*
X112462182Y-53249746D01*
X112541000Y-53645993D01*
X112541000Y-54050007D01*
X112462182Y-54446254D01*
X112307574Y-54819511D01*
X112307573Y-54819513D01*
X112083116Y-55155436D01*
X111797436Y-55441116D01*
X111461513Y-55665573D01*
X111461512Y-55665574D01*
X111461511Y-55665574D01*
X111088254Y-55820182D01*
X110692007Y-55899000D01*
X110287993Y-55899000D01*
X109891746Y-55820182D01*
X109518489Y-55665574D01*
X109518488Y-55665574D01*
X109518487Y-55665573D01*
X109182564Y-55441116D01*
X108896884Y-55155436D01*
X108672427Y-54819513D01*
X108672426Y-54819511D01*
X108517818Y-54446254D01*
X108439000Y-54050007D01*
X108439000Y-53645993D01*
X108517818Y-53249746D01*
X108672426Y-52876489D01*
X108896884Y-52540564D01*
X109182564Y-52254884D01*
X109251234Y-52209000D01*
X109518487Y-52030427D01*
X109546062Y-52019005D01*
X109891746Y-51875818D01*
X110287993Y-51797000D01*
X110692007Y-51797000D01*
X111088254Y-51875818D01*
X111088254Y-51875818D01*
G37*
G36*
X149188254Y-51875818D02*
G01*
X149533938Y-52019005D01*
X149561513Y-52030427D01*
X149828766Y-52209000D01*
X149897436Y-52254884D01*
X150183116Y-52540564D01*
X150407574Y-52876489D01*
X150562182Y-53249746D01*
X150641000Y-53645993D01*
X150641000Y-54050007D01*
X150562182Y-54446254D01*
X150407574Y-54819511D01*
X150407573Y-54819513D01*
X150183116Y-55155436D01*
X149897436Y-55441116D01*
X149561513Y-55665573D01*
X149561512Y-55665574D01*
X149561511Y-55665574D01*
X149188254Y-55820182D01*
X148792007Y-55899000D01*
X148387993Y-55899000D01*
X147991746Y-55820182D01*
X147618489Y-55665574D01*
X147618488Y-55665574D01*
X147618487Y-55665573D01*
X147282564Y-55441116D01*
X146996884Y-55155436D01*
X146772427Y-54819513D01*
X146772426Y-54819511D01*
X146617818Y-54446254D01*
X146539000Y-54050007D01*
X146539000Y-53645993D01*
X146617818Y-53249746D01*
X146772426Y-52876489D01*
X146996884Y-52540564D01*
X147282564Y-52254884D01*
X147351234Y-52209000D01*
X147618487Y-52030427D01*
X147646062Y-52019005D01*
X147991746Y-51875818D01*
X148387993Y-51797000D01*
X148792007Y-51797000D01*
X149188254Y-51875818D01*
X149188254Y-51875818D01*
G37*
G36*
X130138254Y-51875818D02*
G01*
X130483938Y-52019005D01*
X130511513Y-52030427D01*
X130778766Y-52209000D01*
X130847436Y-52254884D01*
X131133116Y-52540564D01*
X131357574Y-52876489D01*
X131512182Y-53249746D01*
X131591000Y-53645993D01*
X131591000Y-54050007D01*
X131512182Y-54446254D01*
X131357574Y-54819511D01*
X131357573Y-54819513D01*
X131133116Y-55155436D01*
X130847436Y-55441116D01*
X130511513Y-55665573D01*
X130511512Y-55665574D01*
X130511511Y-55665574D01*
X130138254Y-55820182D01*
X129742007Y-55899000D01*
X129337993Y-55899000D01*
X128941746Y-55820182D01*
X128568489Y-55665574D01*
X128568488Y-55665574D01*
X128568487Y-55665573D01*
X128232564Y-55441116D01*
X127946884Y-55155436D01*
X127722427Y-54819513D01*
X127722426Y-54819511D01*
X127567818Y-54446254D01*
X127489000Y-54050007D01*
X127489000Y-53645993D01*
X127567818Y-53249746D01*
X127722426Y-52876489D01*
X127946884Y-52540564D01*
X128232564Y-52254884D01*
X128301234Y-52209000D01*
X128568487Y-52030427D01*
X128596062Y-52019005D01*
X128941746Y-51875818D01*
X129337993Y-51797000D01*
X129742007Y-51797000D01*
X130138254Y-51875818D01*
X130138254Y-51875818D01*
G37*
G36*
X162673512Y-52951927D02*
G01*
X162822812Y-52981624D01*
X162986784Y-53049544D01*
X163134354Y-53148147D01*
X163259853Y-53273646D01*
X163358456Y-53421216D01*
X163426376Y-53585188D01*
X163461000Y-53759259D01*
X163461000Y-53936741D01*
X163426376Y-54110812D01*
X163358456Y-54274784D01*
X163259853Y-54422354D01*
X163134354Y-54547853D01*
X162986784Y-54646456D01*
X162822812Y-54714376D01*
X162673512Y-54744073D01*
X162648742Y-54749000D01*
X162471258Y-54749000D01*
X162446488Y-54744073D01*
X162297188Y-54714376D01*
X162133216Y-54646456D01*
X161985646Y-54547853D01*
X161860147Y-54422354D01*
X161761544Y-54274784D01*
X161693624Y-54110812D01*
X161659000Y-53936741D01*
X161659000Y-53759259D01*
X161693624Y-53585188D01*
X161761544Y-53421216D01*
X161860147Y-53273646D01*
X161985646Y-53148147D01*
X162133216Y-53049544D01*
X162297188Y-52981624D01*
X162446488Y-52951927D01*
X162471258Y-52947000D01*
X162648742Y-52947000D01*
X162673512Y-52951927D01*
X162673512Y-52951927D01*
G37*
G36*
X172833512Y-52951927D02*
G01*
X172982812Y-52981624D01*
X173146784Y-53049544D01*
X173294354Y-53148147D01*
X173419853Y-53273646D01*
X173518456Y-53421216D01*
X173586376Y-53585188D01*
X173621000Y-53759259D01*
X173621000Y-53936741D01*
X173586376Y-54110812D01*
X173518456Y-54274784D01*
X173419853Y-54422354D01*
X173294354Y-54547853D01*
X173146784Y-54646456D01*
X172982812Y-54714376D01*
X172833512Y-54744073D01*
X172808742Y-54749000D01*
X172631258Y-54749000D01*
X172606488Y-54744073D01*
X172457188Y-54714376D01*
X172293216Y-54646456D01*
X172145646Y-54547853D01*
X172020147Y-54422354D01*
X171921544Y-54274784D01*
X171853624Y-54110812D01*
X171819000Y-53936741D01*
X171819000Y-53759259D01*
X171853624Y-53585188D01*
X171921544Y-53421216D01*
X172020147Y-53273646D01*
X172145646Y-53148147D01*
X172293216Y-53049544D01*
X172457188Y-52981624D01*
X172606488Y-52951927D01*
X172631258Y-52947000D01*
X172808742Y-52947000D01*
X172833512Y-52951927D01*
X172833512Y-52951927D01*
G37*
G36*
X153783512Y-52951927D02*
G01*
X153932812Y-52981624D01*
X154096784Y-53049544D01*
X154244354Y-53148147D01*
X154369853Y-53273646D01*
X154468456Y-53421216D01*
X154536376Y-53585188D01*
X154571000Y-53759259D01*
X154571000Y-53936741D01*
X154536376Y-54110812D01*
X154468456Y-54274784D01*
X154369853Y-54422354D01*
X154244354Y-54547853D01*
X154096784Y-54646456D01*
X153932812Y-54714376D01*
X153783512Y-54744073D01*
X153758742Y-54749000D01*
X153581258Y-54749000D01*
X153556488Y-54744073D01*
X153407188Y-54714376D01*
X153243216Y-54646456D01*
X153095646Y-54547853D01*
X152970147Y-54422354D01*
X152871544Y-54274784D01*
X152803624Y-54110812D01*
X152769000Y-53936741D01*
X152769000Y-53759259D01*
X152803624Y-53585188D01*
X152871544Y-53421216D01*
X152970147Y-53273646D01*
X153095646Y-53148147D01*
X153243216Y-53049544D01*
X153407188Y-52981624D01*
X153556488Y-52951927D01*
X153581258Y-52947000D01*
X153758742Y-52947000D01*
X153783512Y-52951927D01*
X153783512Y-52951927D01*
G37*
G36*
X143623512Y-52951927D02*
G01*
X143772812Y-52981624D01*
X143936784Y-53049544D01*
X144084354Y-53148147D01*
X144209853Y-53273646D01*
X144308456Y-53421216D01*
X144376376Y-53585188D01*
X144411000Y-53759259D01*
X144411000Y-53936741D01*
X144376376Y-54110812D01*
X144308456Y-54274784D01*
X144209853Y-54422354D01*
X144084354Y-54547853D01*
X143936784Y-54646456D01*
X143772812Y-54714376D01*
X143623512Y-54744073D01*
X143598742Y-54749000D01*
X143421258Y-54749000D01*
X143396488Y-54744073D01*
X143247188Y-54714376D01*
X143083216Y-54646456D01*
X142935646Y-54547853D01*
X142810147Y-54422354D01*
X142711544Y-54274784D01*
X142643624Y-54110812D01*
X142609000Y-53936741D01*
X142609000Y-53759259D01*
X142643624Y-53585188D01*
X142711544Y-53421216D01*
X142810147Y-53273646D01*
X142935646Y-53148147D01*
X143083216Y-53049544D01*
X143247188Y-52981624D01*
X143396488Y-52951927D01*
X143421258Y-52947000D01*
X143598742Y-52947000D01*
X143623512Y-52951927D01*
X143623512Y-52951927D01*
G37*
G36*
X105523512Y-52951927D02*
G01*
X105672812Y-52981624D01*
X105836784Y-53049544D01*
X105984354Y-53148147D01*
X106109853Y-53273646D01*
X106208456Y-53421216D01*
X106276376Y-53585188D01*
X106311000Y-53759259D01*
X106311000Y-53936741D01*
X106276376Y-54110812D01*
X106208456Y-54274784D01*
X106109853Y-54422354D01*
X105984354Y-54547853D01*
X105836784Y-54646456D01*
X105672812Y-54714376D01*
X105523512Y-54744073D01*
X105498742Y-54749000D01*
X105321258Y-54749000D01*
X105296488Y-54744073D01*
X105147188Y-54714376D01*
X104983216Y-54646456D01*
X104835646Y-54547853D01*
X104710147Y-54422354D01*
X104611544Y-54274784D01*
X104543624Y-54110812D01*
X104509000Y-53936741D01*
X104509000Y-53759259D01*
X104543624Y-53585188D01*
X104611544Y-53421216D01*
X104710147Y-53273646D01*
X104835646Y-53148147D01*
X104983216Y-53049544D01*
X105147188Y-52981624D01*
X105296488Y-52951927D01*
X105321258Y-52947000D01*
X105498742Y-52947000D01*
X105523512Y-52951927D01*
X105523512Y-52951927D01*
G37*
G36*
X124573512Y-52951927D02*
G01*
X124722812Y-52981624D01*
X124886784Y-53049544D01*
X125034354Y-53148147D01*
X125159853Y-53273646D01*
X125258456Y-53421216D01*
X125326376Y-53585188D01*
X125361000Y-53759259D01*
X125361000Y-53936741D01*
X125326376Y-54110812D01*
X125258456Y-54274784D01*
X125159853Y-54422354D01*
X125034354Y-54547853D01*
X124886784Y-54646456D01*
X124722812Y-54714376D01*
X124573512Y-54744073D01*
X124548742Y-54749000D01*
X124371258Y-54749000D01*
X124346488Y-54744073D01*
X124197188Y-54714376D01*
X124033216Y-54646456D01*
X123885646Y-54547853D01*
X123760147Y-54422354D01*
X123661544Y-54274784D01*
X123593624Y-54110812D01*
X123559000Y-53936741D01*
X123559000Y-53759259D01*
X123593624Y-53585188D01*
X123661544Y-53421216D01*
X123760147Y-53273646D01*
X123885646Y-53148147D01*
X124033216Y-53049544D01*
X124197188Y-52981624D01*
X124346488Y-52951927D01*
X124371258Y-52947000D01*
X124548742Y-52947000D01*
X124573512Y-52951927D01*
X124573512Y-52951927D01*
G37*
G36*
X115683512Y-52951927D02*
G01*
X115832812Y-52981624D01*
X115996784Y-53049544D01*
X116144354Y-53148147D01*
X116269853Y-53273646D01*
X116368456Y-53421216D01*
X116436376Y-53585188D01*
X116471000Y-53759259D01*
X116471000Y-53936741D01*
X116436376Y-54110812D01*
X116368456Y-54274784D01*
X116269853Y-54422354D01*
X116144354Y-54547853D01*
X115996784Y-54646456D01*
X115832812Y-54714376D01*
X115683512Y-54744073D01*
X115658742Y-54749000D01*
X115481258Y-54749000D01*
X115456488Y-54744073D01*
X115307188Y-54714376D01*
X115143216Y-54646456D01*
X114995646Y-54547853D01*
X114870147Y-54422354D01*
X114771544Y-54274784D01*
X114703624Y-54110812D01*
X114669000Y-53936741D01*
X114669000Y-53759259D01*
X114703624Y-53585188D01*
X114771544Y-53421216D01*
X114870147Y-53273646D01*
X114995646Y-53148147D01*
X115143216Y-53049544D01*
X115307188Y-52981624D01*
X115456488Y-52951927D01*
X115481258Y-52947000D01*
X115658742Y-52947000D01*
X115683512Y-52951927D01*
X115683512Y-52951927D01*
G37*
G36*
X134733512Y-52951927D02*
G01*
X134882812Y-52981624D01*
X135046784Y-53049544D01*
X135194354Y-53148147D01*
X135319853Y-53273646D01*
X135418456Y-53421216D01*
X135486376Y-53585188D01*
X135521000Y-53759259D01*
X135521000Y-53936741D01*
X135486376Y-54110812D01*
X135418456Y-54274784D01*
X135319853Y-54422354D01*
X135194354Y-54547853D01*
X135046784Y-54646456D01*
X134882812Y-54714376D01*
X134733512Y-54744073D01*
X134708742Y-54749000D01*
X134531258Y-54749000D01*
X134506488Y-54744073D01*
X134357188Y-54714376D01*
X134193216Y-54646456D01*
X134045646Y-54547853D01*
X133920147Y-54422354D01*
X133821544Y-54274784D01*
X133753624Y-54110812D01*
X133719000Y-53936741D01*
X133719000Y-53759259D01*
X133753624Y-53585188D01*
X133821544Y-53421216D01*
X133920147Y-53273646D01*
X134045646Y-53148147D01*
X134193216Y-53049544D01*
X134357188Y-52981624D01*
X134506488Y-52951927D01*
X134531258Y-52947000D01*
X134708742Y-52947000D01*
X134733512Y-52951927D01*
X134733512Y-52951927D01*
G37*
G36*
X125954549Y-50179116D02*
G01*
X126065734Y-50201232D01*
X126275203Y-50287997D01*
X126463720Y-50413960D01*
X126624040Y-50574280D01*
X126750003Y-50762797D01*
X126836768Y-50972266D01*
X126881000Y-51194636D01*
X126881000Y-51421364D01*
X126836768Y-51643734D01*
X126750003Y-51853203D01*
X126624040Y-52041720D01*
X126463720Y-52202040D01*
X126275203Y-52328003D01*
X126065734Y-52414768D01*
X125954549Y-52436884D01*
X125843365Y-52459000D01*
X125616635Y-52459000D01*
X125505451Y-52436884D01*
X125394266Y-52414768D01*
X125184797Y-52328003D01*
X124996280Y-52202040D01*
X124835960Y-52041720D01*
X124709997Y-51853203D01*
X124623232Y-51643734D01*
X124579000Y-51421364D01*
X124579000Y-51194636D01*
X124623232Y-50972266D01*
X124709997Y-50762797D01*
X124835960Y-50574280D01*
X124996280Y-50413960D01*
X125184797Y-50287997D01*
X125394266Y-50201232D01*
X125505451Y-50179116D01*
X125616635Y-50157000D01*
X125843365Y-50157000D01*
X125954549Y-50179116D01*
X125954549Y-50179116D01*
G37*
G36*
X106904549Y-50179116D02*
G01*
X107015734Y-50201232D01*
X107225203Y-50287997D01*
X107413720Y-50413960D01*
X107574040Y-50574280D01*
X107700003Y-50762797D01*
X107786768Y-50972266D01*
X107831000Y-51194636D01*
X107831000Y-51421364D01*
X107786768Y-51643734D01*
X107700003Y-51853203D01*
X107574040Y-52041720D01*
X107413720Y-52202040D01*
X107225203Y-52328003D01*
X107015734Y-52414768D01*
X106904549Y-52436884D01*
X106793365Y-52459000D01*
X106566635Y-52459000D01*
X106455451Y-52436884D01*
X106344266Y-52414768D01*
X106134797Y-52328003D01*
X105946280Y-52202040D01*
X105785960Y-52041720D01*
X105659997Y-51853203D01*
X105573232Y-51643734D01*
X105529000Y-51421364D01*
X105529000Y-51194636D01*
X105573232Y-50972266D01*
X105659997Y-50762797D01*
X105785960Y-50574280D01*
X105946280Y-50413960D01*
X106134797Y-50287997D01*
X106344266Y-50201232D01*
X106455451Y-50179116D01*
X106566635Y-50157000D01*
X106793365Y-50157000D01*
X106904549Y-50179116D01*
X106904549Y-50179116D01*
G37*
G36*
X164054549Y-50179116D02*
G01*
X164165734Y-50201232D01*
X164375203Y-50287997D01*
X164563720Y-50413960D01*
X164724040Y-50574280D01*
X164850003Y-50762797D01*
X164936768Y-50972266D01*
X164981000Y-51194636D01*
X164981000Y-51421364D01*
X164936768Y-51643734D01*
X164850003Y-51853203D01*
X164724040Y-52041720D01*
X164563720Y-52202040D01*
X164375203Y-52328003D01*
X164165734Y-52414768D01*
X164054549Y-52436884D01*
X163943365Y-52459000D01*
X163716635Y-52459000D01*
X163605451Y-52436884D01*
X163494266Y-52414768D01*
X163284797Y-52328003D01*
X163096280Y-52202040D01*
X162935960Y-52041720D01*
X162809997Y-51853203D01*
X162723232Y-51643734D01*
X162679000Y-51421364D01*
X162679000Y-51194636D01*
X162723232Y-50972266D01*
X162809997Y-50762797D01*
X162935960Y-50574280D01*
X163096280Y-50413960D01*
X163284797Y-50287997D01*
X163494266Y-50201232D01*
X163605451Y-50179116D01*
X163716635Y-50157000D01*
X163943365Y-50157000D01*
X164054549Y-50179116D01*
X164054549Y-50179116D01*
G37*
G36*
X145004549Y-50179116D02*
G01*
X145115734Y-50201232D01*
X145325203Y-50287997D01*
X145513720Y-50413960D01*
X145674040Y-50574280D01*
X145800003Y-50762797D01*
X145886768Y-50972266D01*
X145931000Y-51194636D01*
X145931000Y-51421364D01*
X145886768Y-51643734D01*
X145800003Y-51853203D01*
X145674040Y-52041720D01*
X145513720Y-52202040D01*
X145325203Y-52328003D01*
X145115734Y-52414768D01*
X145004549Y-52436884D01*
X144893365Y-52459000D01*
X144666635Y-52459000D01*
X144555451Y-52436884D01*
X144444266Y-52414768D01*
X144234797Y-52328003D01*
X144046280Y-52202040D01*
X143885960Y-52041720D01*
X143759997Y-51853203D01*
X143673232Y-51643734D01*
X143629000Y-51421364D01*
X143629000Y-51194636D01*
X143673232Y-50972266D01*
X143759997Y-50762797D01*
X143885960Y-50574280D01*
X144046280Y-50413960D01*
X144234797Y-50287997D01*
X144444266Y-50201232D01*
X144555451Y-50179116D01*
X144666635Y-50157000D01*
X144893365Y-50157000D01*
X145004549Y-50179116D01*
X145004549Y-50179116D01*
G37*
G36*
X96376443Y-50413519D02*
G01*
X96442627Y-50420037D01*
X96612466Y-50471557D01*
X96768991Y-50555222D01*
X96792213Y-50574280D01*
X96906186Y-50667814D01*
X96984135Y-50762797D01*
X97018778Y-50805009D01*
X97102443Y-50961534D01*
X97153963Y-51131373D01*
X97171359Y-51308000D01*
X97153963Y-51484627D01*
X97102443Y-51654466D01*
X97018778Y-51810991D01*
X96989448Y-51846729D01*
X96906186Y-51948186D01*
X96805975Y-52030426D01*
X96768991Y-52060778D01*
X96612466Y-52144443D01*
X96442627Y-52195963D01*
X96380925Y-52202040D01*
X96310260Y-52209000D01*
X96221740Y-52209000D01*
X96151075Y-52202040D01*
X96089373Y-52195963D01*
X95919534Y-52144443D01*
X95763009Y-52060778D01*
X95726025Y-52030426D01*
X95625814Y-51948186D01*
X95542552Y-51846729D01*
X95513222Y-51810991D01*
X95429557Y-51654466D01*
X95378037Y-51484627D01*
X95360641Y-51308000D01*
X95378037Y-51131373D01*
X95429557Y-50961534D01*
X95513222Y-50805009D01*
X95547865Y-50762797D01*
X95625814Y-50667814D01*
X95739787Y-50574280D01*
X95763009Y-50555222D01*
X95919534Y-50471557D01*
X96089373Y-50420037D01*
X96155558Y-50413518D01*
X96221740Y-50407000D01*
X96310260Y-50407000D01*
X96376443Y-50413519D01*
X96376443Y-50413519D01*
G37*
G36*
X139231823Y-50469313D02*
G01*
X139392242Y-50517976D01*
X139461922Y-50555221D01*
X139540078Y-50596996D01*
X139669659Y-50703341D01*
X139776004Y-50832922D01*
X139776005Y-50832924D01*
X139855024Y-50980758D01*
X139903687Y-51141177D01*
X139920117Y-51308000D01*
X139903687Y-51474823D01*
X139855024Y-51635242D01*
X139844747Y-51654468D01*
X139776004Y-51783078D01*
X139669659Y-51912659D01*
X139540078Y-52019004D01*
X139540076Y-52019005D01*
X139392242Y-52098024D01*
X139231823Y-52146687D01*
X139106804Y-52159000D01*
X139023196Y-52159000D01*
X138898177Y-52146687D01*
X138737758Y-52098024D01*
X138589924Y-52019005D01*
X138589922Y-52019004D01*
X138460341Y-51912659D01*
X138353996Y-51783078D01*
X138285253Y-51654468D01*
X138274976Y-51635242D01*
X138226313Y-51474823D01*
X138209883Y-51308000D01*
X138226313Y-51141177D01*
X138274976Y-50980758D01*
X138353995Y-50832924D01*
X138353996Y-50832922D01*
X138460341Y-50703341D01*
X138589922Y-50596996D01*
X138668078Y-50555221D01*
X138737758Y-50517976D01*
X138898177Y-50469313D01*
X139023196Y-50457000D01*
X139106804Y-50457000D01*
X139231823Y-50469313D01*
X139231823Y-50469313D01*
G37*
G36*
X120181823Y-50469313D02*
G01*
X120342242Y-50517976D01*
X120411922Y-50555221D01*
X120490078Y-50596996D01*
X120619659Y-50703341D01*
X120726004Y-50832922D01*
X120726005Y-50832924D01*
X120805024Y-50980758D01*
X120853687Y-51141177D01*
X120870117Y-51308000D01*
X120853687Y-51474823D01*
X120805024Y-51635242D01*
X120794747Y-51654468D01*
X120726004Y-51783078D01*
X120619659Y-51912659D01*
X120490078Y-52019004D01*
X120490076Y-52019005D01*
X120342242Y-52098024D01*
X120181823Y-52146687D01*
X120056804Y-52159000D01*
X119973196Y-52159000D01*
X119848177Y-52146687D01*
X119687758Y-52098024D01*
X119539924Y-52019005D01*
X119539922Y-52019004D01*
X119410341Y-51912659D01*
X119303996Y-51783078D01*
X119235253Y-51654468D01*
X119224976Y-51635242D01*
X119176313Y-51474823D01*
X119159883Y-51308000D01*
X119176313Y-51141177D01*
X119224976Y-50980758D01*
X119303995Y-50832924D01*
X119303996Y-50832922D01*
X119410341Y-50703341D01*
X119539922Y-50596996D01*
X119618078Y-50555221D01*
X119687758Y-50517976D01*
X119848177Y-50469313D01*
X119973196Y-50457000D01*
X120056804Y-50457000D01*
X120181823Y-50469313D01*
X120181823Y-50469313D01*
G37*
G36*
X101131823Y-50469313D02*
G01*
X101292242Y-50517976D01*
X101361922Y-50555221D01*
X101440078Y-50596996D01*
X101569659Y-50703341D01*
X101676004Y-50832922D01*
X101676005Y-50832924D01*
X101755024Y-50980758D01*
X101803687Y-51141177D01*
X101820117Y-51308000D01*
X101803687Y-51474823D01*
X101755024Y-51635242D01*
X101744747Y-51654468D01*
X101676004Y-51783078D01*
X101569659Y-51912659D01*
X101440078Y-52019004D01*
X101440076Y-52019005D01*
X101292242Y-52098024D01*
X101131823Y-52146687D01*
X101006804Y-52159000D01*
X100923196Y-52159000D01*
X100798177Y-52146687D01*
X100637758Y-52098024D01*
X100489924Y-52019005D01*
X100489922Y-52019004D01*
X100360341Y-51912659D01*
X100253996Y-51783078D01*
X100185253Y-51654468D01*
X100174976Y-51635242D01*
X100126313Y-51474823D01*
X100109883Y-51308000D01*
X100126313Y-51141177D01*
X100174976Y-50980758D01*
X100253995Y-50832924D01*
X100253996Y-50832922D01*
X100360341Y-50703341D01*
X100489922Y-50596996D01*
X100568078Y-50555221D01*
X100637758Y-50517976D01*
X100798177Y-50469313D01*
X100923196Y-50457000D01*
X101006804Y-50457000D01*
X101131823Y-50469313D01*
X101131823Y-50469313D01*
G37*
G36*
X158281823Y-50469313D02*
G01*
X158442242Y-50517976D01*
X158511922Y-50555221D01*
X158590078Y-50596996D01*
X158719659Y-50703341D01*
X158826004Y-50832922D01*
X158826005Y-50832924D01*
X158905024Y-50980758D01*
X158953687Y-51141177D01*
X158970117Y-51308000D01*
X158953687Y-51474823D01*
X158905024Y-51635242D01*
X158894747Y-51654468D01*
X158826004Y-51783078D01*
X158719659Y-51912659D01*
X158590078Y-52019004D01*
X158590076Y-52019005D01*
X158442242Y-52098024D01*
X158281823Y-52146687D01*
X158156804Y-52159000D01*
X158073196Y-52159000D01*
X157948177Y-52146687D01*
X157787758Y-52098024D01*
X157639924Y-52019005D01*
X157639922Y-52019004D01*
X157510341Y-51912659D01*
X157403996Y-51783078D01*
X157335253Y-51654468D01*
X157324976Y-51635242D01*
X157276313Y-51474823D01*
X157259883Y-51308000D01*
X157276313Y-51141177D01*
X157324976Y-50980758D01*
X157403995Y-50832924D01*
X157403996Y-50832922D01*
X157510341Y-50703341D01*
X157639922Y-50596996D01*
X157718078Y-50555221D01*
X157787758Y-50517976D01*
X157948177Y-50469313D01*
X158073196Y-50457000D01*
X158156804Y-50457000D01*
X158281823Y-50469313D01*
X158281823Y-50469313D01*
G37*
G36*
X132304549Y-47639116D02*
G01*
X132415734Y-47661232D01*
X132625203Y-47747997D01*
X132813720Y-47873960D01*
X132974040Y-48034280D01*
X133100003Y-48222797D01*
X133186768Y-48432266D01*
X133231000Y-48654636D01*
X133231000Y-48881364D01*
X133186768Y-49103734D01*
X133100003Y-49313203D01*
X132974040Y-49501720D01*
X132813720Y-49662040D01*
X132625203Y-49788003D01*
X132415734Y-49874768D01*
X132304549Y-49896884D01*
X132193365Y-49919000D01*
X131966635Y-49919000D01*
X131855451Y-49896884D01*
X131744266Y-49874768D01*
X131534797Y-49788003D01*
X131346280Y-49662040D01*
X131185960Y-49501720D01*
X131059997Y-49313203D01*
X130973232Y-49103734D01*
X130929000Y-48881364D01*
X130929000Y-48654636D01*
X130973232Y-48432266D01*
X131059997Y-48222797D01*
X131185960Y-48034280D01*
X131346280Y-47873960D01*
X131534797Y-47747997D01*
X131744266Y-47661232D01*
X131855451Y-47639116D01*
X131966635Y-47617000D01*
X132193365Y-47617000D01*
X132304549Y-47639116D01*
X132304549Y-47639116D01*
G37*
G36*
X170404549Y-47639116D02*
G01*
X170515734Y-47661232D01*
X170725203Y-47747997D01*
X170913720Y-47873960D01*
X171074040Y-48034280D01*
X171200003Y-48222797D01*
X171286768Y-48432266D01*
X171331000Y-48654636D01*
X171331000Y-48881364D01*
X171286768Y-49103734D01*
X171200003Y-49313203D01*
X171074040Y-49501720D01*
X170913720Y-49662040D01*
X170725203Y-49788003D01*
X170515734Y-49874768D01*
X170404549Y-49896884D01*
X170293365Y-49919000D01*
X170066635Y-49919000D01*
X169955451Y-49896884D01*
X169844266Y-49874768D01*
X169634797Y-49788003D01*
X169446280Y-49662040D01*
X169285960Y-49501720D01*
X169159997Y-49313203D01*
X169073232Y-49103734D01*
X169029000Y-48881364D01*
X169029000Y-48654636D01*
X169073232Y-48432266D01*
X169159997Y-48222797D01*
X169285960Y-48034280D01*
X169446280Y-47873960D01*
X169634797Y-47747997D01*
X169844266Y-47661232D01*
X169955451Y-47639116D01*
X170066635Y-47617000D01*
X170293365Y-47617000D01*
X170404549Y-47639116D01*
X170404549Y-47639116D01*
G37*
G36*
X151354549Y-47639116D02*
G01*
X151465734Y-47661232D01*
X151675203Y-47747997D01*
X151863720Y-47873960D01*
X152024040Y-48034280D01*
X152150003Y-48222797D01*
X152236768Y-48432266D01*
X152281000Y-48654636D01*
X152281000Y-48881364D01*
X152236768Y-49103734D01*
X152150003Y-49313203D01*
X152024040Y-49501720D01*
X151863720Y-49662040D01*
X151675203Y-49788003D01*
X151465734Y-49874768D01*
X151354549Y-49896884D01*
X151243365Y-49919000D01*
X151016635Y-49919000D01*
X150905451Y-49896884D01*
X150794266Y-49874768D01*
X150584797Y-49788003D01*
X150396280Y-49662040D01*
X150235960Y-49501720D01*
X150109997Y-49313203D01*
X150023232Y-49103734D01*
X149979000Y-48881364D01*
X149979000Y-48654636D01*
X150023232Y-48432266D01*
X150109997Y-48222797D01*
X150235960Y-48034280D01*
X150396280Y-47873960D01*
X150584797Y-47747997D01*
X150794266Y-47661232D01*
X150905451Y-47639116D01*
X151016635Y-47617000D01*
X151243365Y-47617000D01*
X151354549Y-47639116D01*
X151354549Y-47639116D01*
G37*
G36*
X113254549Y-47639116D02*
G01*
X113365734Y-47661232D01*
X113575203Y-47747997D01*
X113763720Y-47873960D01*
X113924040Y-48034280D01*
X114050003Y-48222797D01*
X114136768Y-48432266D01*
X114181000Y-48654636D01*
X114181000Y-48881364D01*
X114136768Y-49103734D01*
X114050003Y-49313203D01*
X113924040Y-49501720D01*
X113763720Y-49662040D01*
X113575203Y-49788003D01*
X113365734Y-49874768D01*
X113254549Y-49896884D01*
X113143365Y-49919000D01*
X112916635Y-49919000D01*
X112805451Y-49896884D01*
X112694266Y-49874768D01*
X112484797Y-49788003D01*
X112296280Y-49662040D01*
X112135960Y-49501720D01*
X112009997Y-49313203D01*
X111923232Y-49103734D01*
X111879000Y-48881364D01*
X111879000Y-48654636D01*
X111923232Y-48432266D01*
X112009997Y-48222797D01*
X112135960Y-48034280D01*
X112296280Y-47873960D01*
X112484797Y-47747997D01*
X112694266Y-47661232D01*
X112805451Y-47639116D01*
X112916635Y-47617000D01*
X113143365Y-47617000D01*
X113254549Y-47639116D01*
X113254549Y-47639116D01*
G37*
G36*
X97167000Y-49669000D02*
G01*
X95365000Y-49669000D01*
X95365000Y-47867000D01*
X97167000Y-47867000D01*
X97167000Y-49669000D01*
X97167000Y-49669000D01*
G37*
M02*
