G04 #@! TF.GenerationSoftware,KiCad,Pcbnew,(5.1.2)-1*
G04 #@! TF.CreationDate,2019-05-30T07:31:40-07:00*
G04 #@! TF.ProjectId,mechanical_keyboard_mk0,6d656368-616e-4696-9361-6c5f6b657962,rev?*
G04 #@! TF.SameCoordinates,Original*
G04 #@! TF.FileFunction,Copper,L2,Bot*
G04 #@! TF.FilePolarity,Positive*
%FSLAX46Y46*%
G04 Gerber Fmt 4.6, Leading zero omitted, Abs format (unit mm)*
G04 Created by KiCad (PCBNEW (5.1.2)-1) date 2019-05-30 07:31:40*
%MOMM*%
%LPD*%
G04 APERTURE LIST*
%ADD10C,2.200000*%
%ADD11O,1.700000X1.700000*%
%ADD12R,1.700000X1.700000*%
%ADD13O,1.600000X1.600000*%
%ADD14R,1.600000X1.600000*%
%ADD15C,0.304800*%
G04 APERTURE END LIST*
D10*
X106680000Y-51308000D03*
X113030000Y-48768000D03*
X163830000Y-70358000D03*
X170180000Y-67818000D03*
X163830000Y-51308000D03*
X170180000Y-48768000D03*
X144780000Y-70358000D03*
X151130000Y-67818000D03*
X144780000Y-51308000D03*
X151130000Y-48768000D03*
D11*
X96266000Y-51308000D03*
D12*
X96266000Y-48768000D03*
D11*
X108585000Y-85598000D03*
X106045000Y-85598000D03*
X103505000Y-85598000D03*
D12*
X100965000Y-85598000D03*
D13*
X158115000Y-70358000D03*
D14*
X158115000Y-77978000D03*
D13*
X158115000Y-51308000D03*
D14*
X158115000Y-58928000D03*
D13*
X139065000Y-70358000D03*
D14*
X139065000Y-77978000D03*
D13*
X139065000Y-51308000D03*
D14*
X139065000Y-58928000D03*
D10*
X125730000Y-70358000D03*
X132080000Y-67818000D03*
X125730000Y-51308000D03*
X132080000Y-48768000D03*
X106680000Y-70358000D03*
X113030000Y-67818000D03*
D13*
X120015000Y-70358000D03*
D14*
X120015000Y-77978000D03*
D13*
X120015000Y-51308000D03*
D14*
X120015000Y-58928000D03*
D13*
X100965000Y-70358000D03*
D14*
X100965000Y-77978000D03*
D13*
X100965000Y-51308000D03*
D14*
X100965000Y-58928000D03*
D15*
X100965000Y-60032800D02*
X97790000Y-63207800D01*
X100965000Y-58928000D02*
X100965000Y-60032800D01*
X97790000Y-63207800D02*
X97790000Y-75438000D01*
X97790000Y-75438000D02*
X100330000Y-77978000D01*
X100965000Y-77978000D02*
X100965000Y-85598000D01*
X120015000Y-79082800D02*
X117944800Y-81153000D01*
X120015000Y-77978000D02*
X120015000Y-79082800D01*
X117944800Y-81153000D02*
X105410000Y-81153000D01*
X105410000Y-81153000D02*
X103505000Y-83058000D01*
X103505000Y-83058000D02*
X103505000Y-85598000D01*
X120015000Y-60032800D02*
X118110000Y-61937800D01*
X120015000Y-58928000D02*
X120015000Y-60032800D01*
X118110000Y-61937800D02*
X118110000Y-74168000D01*
X118110000Y-74168000D02*
X120015000Y-76073000D01*
X120015000Y-76073000D02*
X120015000Y-77978000D01*
X106045000Y-85598000D02*
X106045000Y-83693000D01*
X106045000Y-83693000D02*
X106680000Y-83058000D01*
X106680000Y-83058000D02*
X136525000Y-83058000D01*
X139065000Y-80518000D02*
X139065000Y-78613000D01*
X136525000Y-83058000D02*
X139065000Y-80518000D01*
X139065000Y-78613000D02*
X139065000Y-77978000D01*
X139065000Y-58928000D02*
X139065000Y-60198000D01*
X137160000Y-74968200D02*
X139065000Y-76873200D01*
X139065000Y-60198000D02*
X137160000Y-62103000D01*
X137160000Y-62103000D02*
X137160000Y-74968200D01*
X139065000Y-76873200D02*
X139065000Y-77978000D01*
X108585000Y-85598000D02*
X154940000Y-85598000D01*
X154940000Y-85598000D02*
X158115000Y-82423000D01*
X158115000Y-82423000D02*
X158115000Y-77978000D01*
X156962599Y-75720799D02*
X158115000Y-76873200D01*
X156962599Y-61185201D02*
X156962599Y-75720799D01*
X158115000Y-58928000D02*
X158115000Y-60032800D01*
X158115000Y-60032800D02*
X156962599Y-61185201D01*
X158115000Y-76873200D02*
X158115000Y-77978000D01*
M02*
