M48
; DRILL file {KiCad (5.1.2)-1} date 5/30/2019 7:31:31 AM
; FORMAT={3:3/ absolute / metric / suppress leading zeros}
; #@! TF.CreationDate,2019-05-30T07:31:31-07:00
; #@! TF.GenerationSoftware,Kicad,Pcbnew,(5.1.2)-1
FMAT,2
METRIC,TZ
T1C0.800
T2C1.000
T3C1.500
T4C1.700
T5C4.000
%
G90
G05
T1
X139065Y-51308
X139065Y-58928
X120015Y-70358
X120015Y-77978
X158115Y-70358
X158115Y-77978
X120015Y-51308
X120015Y-58928
X100965Y-51308
X100965Y-58928
X158115Y-51308
X158115Y-58928
X100965Y-70358
X100965Y-77978
X139065Y-70358
X139065Y-77978
T2
X100965Y-85598
X103505Y-85598
X106045Y-85598
X108585Y-85598
X96266Y-48768
X96266Y-51308
T3
X144780Y-70358
X151130Y-67818
X163830Y-51308
X170180Y-48768
X163830Y-70358
X170180Y-67818
X106680Y-51308
X113030Y-48768
X125730Y-51308
X132080Y-48768
X144780Y-51308
X151130Y-48768
X106680Y-70358
X113030Y-67818
X125730Y-70358
X132080Y-67818
T4
X143510Y-72898
X153670Y-72898
X162560Y-53848
X172720Y-53848
X162560Y-72898
X172720Y-72898
X105410Y-53848
X115570Y-53848
X124460Y-53848
X134620Y-53848
X143510Y-53848
X153670Y-53848
X105410Y-72898
X115570Y-72898
X124460Y-72898
X134620Y-72898
T5
X129540Y-53848
X110490Y-72898
X129540Y-72898
X148590Y-72898
X167640Y-53848
X167640Y-72898
X110490Y-53848
X148590Y-53848
T0
M30
